<svg width="198" height="47" viewBox="0 0 198 47" fill="none" xmlns="http://www.w3.org/2000/svg">
<g clip-path="url(#clip0_842_13700)">
<path fill-rule="evenodd" clip-rule="evenodd" d="M25.9266 25.9266C25.1685 26.0758 24.3849 26.154 23.5831 26.154C22.7813 26.154 21.9978 26.0758 21.2397 25.9266C21.0905 25.1685 21.0123 24.3849 21.0123 23.5831C21.0123 22.7813 21.0905 21.9978 21.2397 21.2397C21.9978 21.0905 22.7813 21.0123 23.5831 21.0123C24.3849 21.0123 25.1685 21.0905 25.9266 21.2397C26.0758 21.9978 26.154 22.7813 26.154 23.5831C26.154 24.3849 26.0758 25.1685 25.9266 25.9266ZM25.4145 27.7521C24.8154 27.8317 24.204 27.8727 23.5831 27.8727C22.9622 27.8727 22.3509 27.8317 21.7517 27.7521C22.1906 28.9446 22.8125 30.0486 23.5831 31.0302C24.3538 30.0486 24.9756 28.9446 25.4145 27.7521ZM19.4141 25.4145C19.3346 24.8154 19.2936 24.204 19.2936 23.5831C19.2936 22.9622 19.3346 22.3509 19.4141 21.7517C18.2217 22.1906 17.1176 22.8125 16.1361 23.5831C17.1176 24.3538 18.2217 24.9756 19.4141 25.4145ZM14.8479 24.7531C16.2889 25.9344 17.9734 26.8294 19.8148 27.3514C20.3368 29.1928 21.2319 30.8774 22.4131 32.3184C20.2472 34.384 17.3141 35.6523 14.0848 35.6523C13.283 35.6523 12.4994 35.5741 11.7413 35.4249C11.5922 34.6668 11.514 33.8833 11.514 33.0815C11.514 29.8521 12.7823 26.9191 14.8479 24.7531ZM14.8479 22.4131C16.2888 21.2319 17.9734 20.3368 19.8148 19.8148C20.3368 17.9734 21.2319 16.2889 22.4131 14.8479C20.2472 12.7823 17.3141 11.514 14.0848 11.514C13.283 11.514 12.4994 11.5922 11.7413 11.7413C11.5922 12.4994 11.514 13.283 11.514 14.0848C11.514 17.3141 12.7823 20.2472 14.8479 22.4131ZM9.91578 12.2534C9.83626 12.8526 9.79521 13.4639 9.79521 14.0848C9.79521 17.766 11.2379 21.1103 13.5887 23.5831C11.2379 26.0559 9.79521 29.4002 9.79521 33.0815C9.79521 33.7024 9.83625 34.3137 9.91578 34.9129C5.30454 33.2155 2.01562 28.7834 2.01563 23.5831C2.01563 18.3828 5.30454 13.9507 9.91578 12.2534ZM10.3165 10.3165C11.9559 4.53338 17.2748 0.296875 23.5831 0.296875C29.8915 0.296875 35.2103 4.53338 36.8498 10.3165C42.6329 11.9559 46.8694 17.2748 46.8694 23.5831C46.8694 29.8915 42.6329 35.2103 36.8498 36.8498C35.2103 42.6329 29.8915 46.8694 23.5831 46.8694C17.2748 46.8694 11.9559 42.6329 10.3165 36.8498C4.53338 35.2103 0.296875 29.8915 0.296875 23.5831C0.296875 17.2748 4.53338 11.9559 10.3165 10.3165ZM12.2534 9.91578C13.9507 5.30454 18.3828 2.01563 23.5831 2.01563C28.7834 2.01563 33.2155 5.30454 34.9129 9.91578C34.3137 9.83626 33.7024 9.79521 33.0815 9.79521C29.4002 9.79521 26.0559 11.2379 23.5831 13.5887C21.1103 11.2379 17.766 9.79521 14.0848 9.79521C13.4639 9.79521 12.8526 9.83626 12.2534 9.91578ZM35.4249 11.7413C34.6669 11.5922 33.8833 11.514 33.0815 11.514C29.8522 11.514 26.9191 12.7823 24.7531 14.8479C25.9344 16.2889 26.8294 17.9734 27.3514 19.8148C29.1928 20.3368 30.8774 21.2319 32.3184 22.4131C34.384 20.2472 35.6523 17.3141 35.6523 14.0848C35.6523 13.283 35.5741 12.4994 35.4249 11.7413ZM37.2505 12.2534C37.33 12.8526 37.371 13.4639 37.371 14.0848C37.371 17.766 35.9284 21.1103 33.5776 23.5831C35.9284 26.0559 37.371 29.4002 37.371 33.0815C37.371 33.7024 37.33 34.3137 37.2505 34.9129C41.8617 33.2155 45.1506 28.7834 45.1506 23.5831C45.1506 18.3828 41.8617 13.9507 37.2505 12.2534ZM32.3184 24.7531C34.384 26.9191 35.6523 29.8521 35.6523 33.0815C35.6523 33.8833 35.5741 34.6668 35.4249 35.4249C34.6668 35.5741 33.8833 35.6523 33.0815 35.6523C29.8522 35.6523 26.9191 34.384 24.7531 32.3184C25.9344 30.8774 26.8294 29.1928 27.3514 27.3514C29.1928 26.8294 30.8774 25.9344 32.3184 24.7531ZM31.0302 23.5831C30.0486 24.3538 28.9446 24.9756 27.7521 25.4145C27.8317 24.8154 27.8727 24.204 27.8727 23.5831C27.8727 22.9622 27.8317 22.3509 27.7521 21.7517C28.9446 22.1906 30.0486 22.8125 31.0302 23.5831ZM14.0848 37.371C17.766 37.371 21.1103 35.9284 23.5831 33.5776C26.0559 35.9284 29.4002 37.371 33.0815 37.371C33.7024 37.371 34.3137 37.33 34.9129 37.2505C33.2155 41.8617 28.7834 45.1506 23.5831 45.1506C18.3828 45.1506 13.9507 41.8617 12.2534 37.2505C12.8526 37.33 13.4639 37.371 14.0848 37.371ZM21.7517 19.4141C22.1906 18.2217 22.8125 17.1176 23.5831 16.1361C24.3538 17.1176 24.9756 18.2217 25.4145 19.4141C24.8154 19.3346 24.204 19.2936 23.5831 19.2936C22.9622 19.2936 22.3509 19.3346 21.7517 19.4141Z" fill="black"/>
</g>
<path d="M71.5755 23.4585H74.6153V30.3695C73.6627 31.0797 72.5368 31.6599 71.2378 32.1103C69.9387 32.5433 68.6656 32.7598 67.4185 32.7598C65.6345 32.7598 64.0063 32.3441 62.534 31.5127C61.0791 30.6813 59.9272 29.5555 59.0785 28.1351C58.2298 26.6975 57.8054 25.1127 57.8054 23.3806C57.8054 21.6485 58.2384 20.0809 59.1045 18.6779C59.9705 17.2576 61.1483 16.1404 62.6379 15.3264C64.1449 14.495 65.8077 14.0793 67.6264 14.0793C68.9254 14.0793 70.2072 14.3131 71.4716 14.7808C72.736 15.2484 73.8272 15.8893 74.7452 16.7034L72.7706 19.2755C72.0778 18.6173 71.2724 18.1064 70.3544 17.7426C69.4537 17.3789 68.5444 17.197 67.6264 17.197C66.4832 17.197 65.4266 17.4741 64.4566 18.0284C63.504 18.5654 62.7505 19.3102 62.1963 20.2628C61.642 21.2155 61.3649 22.2547 61.3649 23.3806C61.3649 24.5237 61.642 25.5717 62.1963 26.5243C62.7678 27.4769 63.53 28.2304 64.4826 28.7847C65.4353 29.3389 66.4918 29.6161 67.6523 29.6161C68.2759 29.6161 68.9254 29.5208 69.6009 29.3303C70.2938 29.1224 70.952 28.8366 71.5755 28.4729V23.4585ZM78.6442 14.3131H82.1257V32.5H78.6442V14.3131ZM84.4034 14.3131H88.1447L93.4968 28.6288L98.9009 14.3131H102.486L95.2116 32.5H91.6002L84.4034 14.3131ZM104.803 14.3131H118.132V17.3529H108.285V21.8477H117.118V24.8875H108.285V29.4602H118.443V32.5H104.803V14.3131ZM136.429 14.3131C138.369 14.3131 139.893 14.7201 141.002 15.5342C142.127 16.3483 142.69 17.4568 142.69 18.8598C142.69 19.8644 142.405 20.7305 141.833 21.4579C141.279 22.1681 140.508 22.6444 139.521 22.8869C140.733 23.1121 141.677 23.6317 142.353 24.4458C143.045 25.2599 143.392 26.2731 143.392 27.4856C143.392 29.0445 142.786 30.2743 141.573 31.175C140.378 32.0583 138.741 32.5 136.663 32.5H128.349V14.3131H136.429ZM136.247 21.7437C137.148 21.7437 137.849 21.5446 138.352 21.1462C138.871 20.7478 139.131 20.1935 139.131 19.4834C139.131 18.7905 138.871 18.2536 138.352 17.8725C137.849 17.4915 137.148 17.3096 136.247 17.3269H131.83V21.7437H136.247ZM136.247 29.4862C137.356 29.5035 138.222 29.2956 138.845 28.8626C139.469 28.4296 139.78 27.8234 139.78 27.0439C139.78 26.2991 139.469 25.7189 138.845 25.3032C138.222 24.8702 137.356 24.6623 136.247 24.6796H131.83V29.4862H136.247ZM160.227 32.5L158.617 28.6548H149.731L148.12 32.5H144.509L152.485 14.3131H156.096L163.969 32.5H160.227ZM150.978 25.6669H157.369L154.2 18.0284L150.978 25.6669ZM177.484 18.9897C176.548 18.4181 175.587 17.9765 174.6 17.6647C173.63 17.3529 172.773 17.197 172.028 17.197C171.196 17.197 170.538 17.3529 170.053 17.6647C169.568 17.9765 169.326 18.4095 169.326 18.9637C169.326 19.466 169.49 19.8904 169.819 20.2368C170.166 20.5659 170.59 20.8431 171.092 21.0682C171.612 21.2761 172.314 21.5099 173.197 21.7697C174.427 22.1335 175.431 22.4972 176.211 22.8609C177.007 23.2247 177.683 23.7616 178.237 24.4718C178.792 25.1819 179.069 26.1173 179.069 27.2778C179.069 28.3863 178.766 29.3563 178.159 30.1877C177.57 31.0017 176.748 31.6253 175.691 32.0583C174.652 32.4913 173.457 32.7079 172.106 32.7079C170.685 32.7079 169.3 32.448 167.949 31.9284C166.598 31.3915 165.42 30.6813 164.415 29.7979L165.87 26.8361C166.788 27.6848 167.819 28.3517 168.962 28.8366C170.105 29.3216 171.17 29.5641 172.158 29.5641C173.128 29.5641 173.89 29.3822 174.444 29.0185C174.998 28.6374 175.275 28.1265 175.275 27.4856C175.275 26.966 175.102 26.5416 174.756 26.2125C174.427 25.8661 174.002 25.589 173.483 25.3811C172.963 25.1733 172.253 24.9394 171.352 24.6796C170.122 24.3159 169.118 23.9608 168.338 23.6144C167.559 23.268 166.892 22.7484 166.338 22.0555C165.784 21.3454 165.506 20.4187 165.506 19.2755C165.506 18.2189 165.784 17.3009 166.338 16.5215C166.909 15.7247 167.706 15.1099 168.728 14.6768C169.767 14.2438 170.962 14.0273 172.314 14.0273C173.491 14.0273 174.652 14.2005 175.795 14.5469C176.956 14.8933 177.986 15.361 178.887 15.9499L177.484 18.9897ZM182.366 14.3131H195.695V17.3529H185.848V21.8477H194.682V24.8875H185.848V29.4602H196.007V32.5H182.366V14.3131Z" fill="black"/>
<defs>
<clipPath id="clip0_842_13700">
<rect width="47" height="47" fill="white"/>
</clipPath>
</defs>
</svg>
