<?xml version="1.0" encoding="UTF-8" standalone="no"?>
<!DOCTYPE svg PUBLIC "-//W3C//DTD SVG 1.1//EN" "http://www.w3.org/Graphics/SVG/1.1/DTD/svg11.dtd">
<svg width="100%" height="100%" viewBox="0 0 1024 1024" version="1.1" xmlns="http://www.w3.org/2000/svg" xmlns:xlink="http://www.w3.org/1999/xlink" xml:space="preserve" xmlns:serif="http://www.serif.com/" style="fill-rule:evenodd;clip-rule:evenodd;stroke-linejoin:round;stroke-miterlimit:2;">
    <g id="celo.svg" transform="matrix(1.07789,0,0,1.07789,512,512)">
        <g transform="matrix(1,0,0,1,-475,-475)">
            <path id="Bottom_Ring" d="M375,850C526.9,850 650,726.9 650,575C650,423.1 526.9,300 375,300C223.1,300 100,423.1 100,575C100,726.9 223.1,850 375,850ZM375,950C167.9,950 0,782.1 0,575C0,367.9 167.9,200 375,200C582.1,200 750,367.9 750,575C750,782.1 582.1,950 375,950Z" style="fill:rgb(251,204,92);fill-rule:nonzero;"/>
            <path id="Top_Ring" d="M575,650C726.9,650 850,526.9 850,375C850,223.1 726.9,100 575,100C423.1,100 300,223.1 300,375C300,526.9 423.1,650 575,650ZM575,750C367.9,750 200,582.1 200,375C200,167.9 367.9,0 575,0C782.1,0 950,167.9 950,375C950,582.1 782.1,750 575,750Z" style="fill:rgb(53,208,127);fill-rule:nonzero;"/>
            <path id="Rings_Overlap" d="M587.4,750C613.4,718.5 632,681.6 641.9,641.9C681.5,632 718.4,613.4 750,587.4C748.6,633.3 738.7,678.5 720.8,720.9C678.5,738.7 633.3,748.6 587.4,750ZM308.1,308.1C268.5,318 231.6,336.6 200,362.6C201.4,316.7 211.3,271.5 229.2,229.2C271.5,211.4 316.8,201.5 362.6,200C336.6,231.5 318,268.4 308.1,308.1Z" style="fill:rgb(94,163,59);fill-rule:nonzero;"/>
        </g>
    </g>
</svg>
