<?xml version="1.0" encoding="UTF-8" standalone="no"?>
<!DOCTYPE svg PUBLIC "-//W3C//DTD SVG 1.1//EN" "http://www.w3.org/Graphics/SVG/1.1/DTD/svg11.dtd">
<svg width="100%" height="100%" viewBox="0 0 1024 1024" version="1.1" xmlns="http://www.w3.org/2000/svg" xmlns:xlink="http://www.w3.org/1999/xlink" xml:space="preserve" xmlns:serif="http://www.serif.com/" style="fill-rule:evenodd;clip-rule:evenodd;stroke-linejoin:round;stroke-miterlimit:2;">
    <g id="filecoin-fil-logo.svg" transform="matrix(25.6,0,0,25.6,512,512)">
        <g transform="matrix(1,0,0,1,-20,-20)">
            <clipPath id="_clip1">
                <rect x="0" y="0" width="40" height="40"/>
            </clipPath>
            <g clip-path="url(#_clip1)">
                <path d="M20,40C9,40 0,31 0,19.9C0.1,8.9 9,-0.1 20.1,0C31.1,0.1 40,9 40,20.2C39.9,31.1 31,40 20,40" style="fill:rgb(0,144,255);"/>
                <path d="M21.9,17.6L21.3,20.8L27,21.6L26.6,23.1L21,22.3C20.6,23.6 20.4,25 19.9,26.2C19.4,27.6 18.9,29 18.3,30.3C17.5,32 16.1,33.2 14.2,33.5C13.1,33.7 11.9,33.6 11,32.9C10.7,32.7 10.4,32.3 10.4,32C10.4,31.6 10.6,31.1 10.9,30.9C11.1,30.8 11.6,30.9 11.9,31C12.2,31.3 12.5,31.7 12.7,32.1C13.3,32.9 14.1,33 14.9,32.4C15.8,31.6 16.3,30.5 16.6,29.4C17.2,27 17.8,24.7 18.3,22.3L18.3,21.9L13,21.1L13.2,19.6L18.7,20.4L19.4,17.3L13.7,16.4L13.9,14.8L19.8,15.6C20,15 20.1,14.5 20.3,14C20.8,12.2 21.3,10.4 22.5,8.8C23.7,7.2 25.1,6.2 27.2,6.3C28.1,6.3 29,6.6 29.6,7.3C29.7,7.4 29.9,7.6 29.9,7.8C29.9,8.2 29.9,8.7 29.6,9C29.2,9.3 28.7,9.2 28.3,8.8C28,8.5 27.8,8.2 27.5,7.9C26.9,7.1 26,7 25.3,7.7C24.8,8.2 24.3,8.9 24,9.6C23.3,11.7 22.8,13.9 22.1,16.1L27.6,16.9L27.2,18.4L21.9,17.6" style="fill:white;"/>
            </g>
        </g>
    </g>
</svg>
