<?xml version="1.0" encoding="UTF-8" standalone="no"?>
<!DOCTYPE svg PUBLIC "-//W3C//DTD SVG 1.1//EN" "http://www.w3.org/Graphics/SVG/1.1/DTD/svg11.dtd">
<svg width="100%" height="100%" viewBox="0 0 1024 1024" version="1.1" xmlns="http://www.w3.org/2000/svg" xmlns:xlink="http://www.w3.org/1999/xlink" xml:space="preserve" xmlns:serif="http://www.serif.com/" style="fill-rule:evenodd;clip-rule:evenodd;stroke-linejoin:round;stroke-miterlimit:2;">
    <g id="flr.svg" transform="matrix(27.9781,0,0,27.9781,510.601,512)">
        <g transform="matrix(1,0,0,1,-18.35,-18.3)">
            <clipPath id="_clip1">
                <rect x="0" y="0" width="36.7" height="36.6"/>
            </clipPath>
            <g clip-path="url(#_clip1)">
                <path id="Path_2898" d="M27.3,13.7L9.2,13.7C4.2,13.7 0.2,17.6 0,22.6C0,22.7 0.1,22.8 0.2,22.8L18.3,22.8C23.3,22.8 27.3,18.9 27.5,13.9C27.5,13.8 27.4,13.7 27.3,13.7Z" style="fill:rgb(230,32,88);fill-rule:nonzero;"/>
                <path id="Path_2899" d="M36.4,0L9.2,0C4.2,0 0.2,3.9 0,8.9C0,9 0.1,9.2 0.2,9.2L27.5,9.2C32.5,9.2 36.5,5.3 36.7,0.3C36.7,0.1 36.6,0 36.4,0Z" style="fill:rgb(230,32,88);fill-rule:nonzero;"/>
                <circle id="Ellipse_9" cx="4.6" cy="32" r="4.6" style="fill:rgb(230,32,88);"/>
            </g>
        </g>
    </g>
</svg>
