<?xml version="1.0" encoding="UTF-8" standalone="no"?>
<!DOCTYPE svg PUBLIC "-//W3C//DTD SVG 1.1//EN" "http://www.w3.org/Graphics/SVG/1.1/DTD/svg11.dtd">
<svg width="100%" height="100%" viewBox="0 0 1024 1024" version="1.1" xmlns="http://www.w3.org/2000/svg" xmlns:xlink="http://www.w3.org/1999/xlink" xml:space="preserve" xmlns:serif="http://www.serif.com/" style="fill-rule:evenodd;clip-rule:evenodd;stroke-linejoin:round;stroke-miterlimit:2;">
    <g id="hbar.svg" transform="matrix(0.4096,0,0,0.4096,512,512)">
        <g transform="matrix(1,0,0,1,-1250,-1250)">
            <g id="Layer_2">
                <g id="Layer_1-2">
                    <path d="M1250,0C559.64,0 0,559.64 0,1250C0,1940.36 559.64,2500 1250,2500C1940.36,2500 2500,1940.36 2500,1250C2500,559.64 1940.36,0 1250,0" style="fill-rule:nonzero;"/>
                    <path d="M1758.12,1790.62L1599.38,1790.62L1599.38,1453.13L900.62,1453.13L900.62,1790.62L741.87,1790.62L741.87,696.25L900.62,696.25L900.62,1025.62L1599.38,1025.62L1599.38,696.25L1758.13,696.25L1758.12,1790.62ZM908.12,1326.87L1606.87,1326.87L1606.87,1152.5L908.12,1152.5L908.12,1326.87Z" style="fill:white;fill-rule:nonzero;"/>
                </g>
            </g>
        </g>
    </g>
</svg>
