<?xml version="1.0" encoding="UTF-8" standalone="no"?>
<!DOCTYPE svg PUBLIC "-//W3C//DTD SVG 1.1//EN" "http://www.w3.org/Graphics/SVG/1.1/DTD/svg11.dtd">
<svg width="100%" height="100%" viewBox="0 0 1024 1024" version="1.1" xmlns="http://www.w3.org/2000/svg" xmlns:xlink="http://www.w3.org/1999/xlink" xml:space="preserve" xmlns:serif="http://www.serif.com/" style="fill-rule:evenodd;clip-rule:evenodd;stroke-linecap:round;stroke-linejoin:round;">
    <g id="MetaMask-Fox.svg" serif:id="MetaMask Fox.svg" transform="matrix(1.54396,0,0,1.54396,512,476.369)">
        <g transform="matrix(1,0,0,1,-331.614,-308.537)">
            <g id="Artboard1" transform="matrix(1.01878,0,0,1.02846,-69.6198,0)">
                <rect x="68.336" y="0" width="651.001" height="600" style="fill:none;"/>
                <g transform="matrix(1.34614,0,0,1.33348,-144.553,-99.978)">
                    <path d="M613.1,81.3L428.3,218L462.7,137.4L613.1,81.3Z" style="fill:rgb(225,119,38);fill-rule:nonzero;stroke:rgb(225,119,38);stroke-width:3.52px;"/>
                    <path d="M186.9,81.3L370,219.3L337.3,137.5L186.9,81.3Z" style="fill:rgb(226,118,37);fill-rule:nonzero;stroke:rgb(226,118,37);stroke-width:3.52px;"/>
                    <path d="M546.6,398.2L497.4,473.3L602.7,502.3L632.9,399.9L546.6,398.2Z" style="fill:rgb(226,118,37);fill-rule:nonzero;stroke:rgb(226,118,37);stroke-width:3.52px;"/>
                    <path d="M167.4,399.9L197.4,502.3L302.5,473.3L253.5,398.2L167.4,399.9Z" style="fill:rgb(226,118,37);fill-rule:nonzero;stroke:rgb(226,118,37);stroke-width:3.52px;"/>
                    <path d="M296.8,271.4L267.6,315.5L371.8,320.2L368.3,208.1L296.8,271.4Z" style="fill:rgb(226,118,37);fill-rule:nonzero;stroke:rgb(226,118,37);stroke-width:3.52px;"/>
                    <path d="M503.2,271.4L430.7,206.9L428.3,320.3L532.5,315.6L503.2,271.4Z" style="fill:rgb(226,118,37);fill-rule:nonzero;stroke:rgb(226,118,37);stroke-width:3.52px;"/>
                    <path d="M302.4,473.3L365.4,442.9L311.1,400.6L302.4,473.3Z" style="fill:rgb(226,118,37);fill-rule:nonzero;stroke:rgb(226,118,37);stroke-width:3.52px;"/>
                    <path d="M434.5,442.9L497.4,473.3L488.8,400.6L434.5,442.9Z" style="fill:rgb(226,118,37);fill-rule:nonzero;stroke:rgb(226,118,37);stroke-width:3.52px;"/>
                    <path d="M497.4,473.3L434.5,442.9L439.6,483.7L439.1,501L497.4,473.3Z" style="fill:rgb(213,191,178);fill-rule:nonzero;stroke:rgb(213,191,178);stroke-width:3.52px;"/>
                    <path d="M302.4,473.3L360.9,501L360.5,483.7L365.4,442.9L302.4,473.3Z" style="fill:rgb(213,191,178);fill-rule:nonzero;stroke:rgb(213,191,178);stroke-width:3.52px;"/>
                    <path d="M362,373.6L309.7,358.3L346.6,341.3L362,373.6Z" style="fill:rgb(35,52,71);fill-rule:nonzero;stroke:rgb(35,52,71);stroke-width:3.52px;"/>
                    <path d="M438,373.6L453.4,341.3L490.5,358.3L438,373.6Z" style="fill:rgb(35,52,71);fill-rule:nonzero;stroke:rgb(35,52,71);stroke-width:3.52px;"/>
                    <path d="M302.4,473.3L311.5,398.2L253.4,399.8L302.4,473.3Z" style="fill:rgb(204,98,40);fill-rule:nonzero;stroke:rgb(204,98,40);stroke-width:3.52px;"/>
                    <path d="M488.4,398.2L497.4,473.3L546.6,399.8L488.4,398.2Z" style="fill:rgb(204,98,40);fill-rule:nonzero;stroke:rgb(204,98,40);stroke-width:3.52px;"/>
                    <path d="M532.5,315.5L428.3,320.2L438,373.6L453.4,341.3L490.5,358.3L532.5,315.5Z" style="fill:rgb(204,98,40);fill-rule:nonzero;stroke:rgb(204,98,40);stroke-width:3.52px;"/>
                    <path d="M309.7,358.3L346.6,341.3L362,373.6L371.7,320.2L267.5,315.5L309.7,358.3Z" style="fill:rgb(204,98,40);fill-rule:nonzero;stroke:rgb(204,98,40);stroke-width:3.52px;"/>
                    <path d="M267.5,315.5L311.2,400.6L309.7,358.3L267.5,315.5Z" style="fill:rgb(226,117,37);fill-rule:nonzero;stroke:rgb(226,117,37);stroke-width:3.52px;"/>
                    <path d="M490.5,358.3L488.9,400.6L532.6,315.5L490.5,358.3Z" style="fill:rgb(226,117,37);fill-rule:nonzero;stroke:rgb(226,117,37);stroke-width:3.52px;"/>
                    <path d="M371.7,320.2L362,373.6L374.2,436.7L376.9,353.6L371.7,320.2Z" style="fill:rgb(226,117,37);fill-rule:nonzero;stroke:rgb(226,117,37);stroke-width:3.52px;"/>
                    <path d="M428.3,320.2L423.2,353.4L425.8,436.7L438,373.6L428.3,320.2Z" style="fill:rgb(226,117,37);fill-rule:nonzero;stroke:rgb(226,117,37);stroke-width:3.52px;"/>
                    <path d="M438,373.6L425.8,436.7L434.6,442.9L488.9,400.6L490.5,358.3L438,373.6Z" style="fill:rgb(245,132,31);fill-rule:nonzero;stroke:rgb(245,132,31);stroke-width:3.52px;"/>
                    <path d="M309.7,358.3L311.2,400.6L365.5,442.9L374.3,436.7L362,373.6L309.7,358.3Z" style="fill:rgb(245,132,31);fill-rule:nonzero;stroke:rgb(245,132,31);stroke-width:3.52px;"/>
                    <path d="M439.1,501L439.6,483.7L434.8,479.7L365,479.7L360.4,483.7L360.8,501L302.3,473.3L322.8,490.1L364.3,518.7L435.4,518.7L477.1,490.1L497.4,473.3L439.1,501Z" style="fill:rgb(192,172,157);fill-rule:nonzero;stroke:rgb(192,172,157);stroke-width:3.52px;"/>
                    <path d="M434.5,442.9L425.7,436.7L374.2,436.7L365.4,442.9L360.5,483.7L365.1,479.7L434.9,479.7L439.7,483.7L434.5,442.9Z" style="fill:rgb(22,22,22);fill-rule:nonzero;stroke:rgb(22,22,22);stroke-width:3.52px;"/>
                    <path d="M620.9,226.9L636.4,151.4L613,81.2L434.5,213.4L503.2,271.4L600.2,299.7L621.6,274.7L612.3,268L627.1,254.5L615.8,245.8L630.6,234.5L620.9,226.9Z" style="fill:rgb(118,62,26);fill-rule:nonzero;stroke:rgb(118,62,26);stroke-width:3.52px;"/>
                    <path d="M163.5,151.5L179.2,227L169.1,234.5L184.1,245.8L172.8,254.5L187.6,268L178.3,274.7L199.7,299.7L296.7,271.4L365.4,213.4L186.9,81.3L163.5,151.5Z" style="fill:rgb(118,62,26);fill-rule:nonzero;stroke:rgb(118,62,26);stroke-width:3.52px;"/>
                    <path d="M600.3,299.6L503.3,271.3L532.5,315.4L488.8,400.5L546.5,399.8L632.8,399.8L600.3,299.6Z" style="fill:rgb(245,132,31);fill-rule:nonzero;stroke:rgb(245,132,31);stroke-width:3.52px;"/>
                    <path d="M296.8,271.4L199.8,299.7L167.5,399.9L253.6,399.9L311.3,400.6L267.6,315.5L296.8,271.4Z" style="fill:rgb(245,132,31);fill-rule:nonzero;stroke:rgb(245,132,31);stroke-width:3.52px;"/>
                    <path d="M428.3,320.2L434.5,213.4L462.6,137.4L337.3,137.4L365.4,213.4L371.6,320.2L374,353.7L374.2,436.6L425.7,436.6L425.9,353.7L428.3,320.2Z" style="fill:rgb(245,132,31);fill-rule:nonzero;stroke:rgb(245,132,31);stroke-width:3.52px;"/>
                </g>
            </g>
        </g>
    </g>
</svg>
