<?xml version="1.0" encoding="UTF-8" standalone="no"?>
<!DOCTYPE svg PUBLIC "-//W3C//DTD SVG 1.1//EN" "http://www.w3.org/Graphics/SVG/1.1/DTD/svg11.dtd">
<svg width="100%" height="100%" viewBox="0 0 1024 1024" version="1.1" xmlns="http://www.w3.org/2000/svg" xmlns:xlink="http://www.w3.org/1999/xlink" xml:space="preserve" xmlns:serif="http://www.serif.com/" style="fill-rule:evenodd;clip-rule:evenodd;">
    <g id="pgn.svg" transform="matrix(2.31151,0,0,2.31151,512,512)">
        <g transform="matrix(1,0,0,1,-221.5,-221.5)">
            <path d="M442.649,221.325C442.649,343.559 343.559,442.649 221.325,442.649C99.09,442.649 0,343.559 0,221.325C0,99.09 99.09,0 221.325,0C343.559,0 442.649,99.09 442.649,221.325Z" style="fill:white;fill-rule:nonzero;"/>
            <path d="M221.325,426.649C334.722,426.649 426.649,334.722 426.649,221.325C426.649,107.927 334.722,16 221.325,16C107.927,16 16,107.927 16,221.325C16,334.722 107.927,426.649 221.325,426.649ZM221.325,442.649C343.559,442.649 442.649,343.559 442.649,221.325C442.649,99.09 343.559,0 221.325,0C99.09,0 0,99.09 0,221.325C0,343.559 99.09,442.649 221.325,442.649Z"/>
            <rect x="120.847" y="121.312" width="129.35" height="129.35" style="stroke:black;stroke-width:12px;"/>
            <rect x="186.451" y="185.987" width="141.35" height="141.35"/>
            <rect x="192.226" y="191.987" width="57.969" height="57.97" style="fill:white;stroke:black;stroke-width:12px;"/>
        </g>
    </g>
</svg>
