<?xml version="1.0" encoding="UTF-8" standalone="no"?>
<!DOCTYPE svg PUBLIC "-//W3C//DTD SVG 1.1//EN" "http://www.w3.org/Graphics/SVG/1.1/DTD/svg11.dtd">
<svg width="100%" height="100%" viewBox="0 0 1024 1024" version="1.1" xmlns="http://www.w3.org/2000/svg" xmlns:xlink="http://www.w3.org/1999/xlink" xml:space="preserve" xmlns:serif="http://www.serif.com/" style="fill-rule:evenodd;clip-rule:evenodd;stroke-linejoin:round;stroke-miterlimit:2;">
    <g id="strk.svg" transform="matrix(6.48101,0,0,6.48101,512,512)">
        <g transform="matrix(1,0,0,1,-79,-79)">
            <clipPath id="_clip1">
                <rect x="0" y="0" width="158" height="158"/>
            </clipPath>
            <g clip-path="url(#_clip1)">
                <path d="M-0,78.999C-0,122.629 35.369,157.998 78.999,157.998C122.629,157.998 158,122.629 158,78.999C158,35.369 122.629,0 78.999,0C35.369,0 -0,35.369 -0,78.999Z" style="fill:rgb(12,12,79);"/>
                <path d="M44.154,60.388L46.104,54.363C46.501,53.137 47.468,52.184 48.698,51.808L54.752,49.946C55.59,49.69 55.597,48.508 54.766,48.238L48.739,46.288C47.515,45.892 46.562,44.925 46.184,43.695L44.324,37.641C44.068,36.805 42.886,36.796 42.616,37.629L40.666,43.654C40.27,44.877 39.303,45.831 38.073,46.209L32.018,48.068C31.18,48.327 31.171,49.507 32.005,49.776L38.032,51.726C39.255,52.123 40.209,53.092 40.587,54.322L42.446,60.374C42.702,61.212 43.885,61.221 44.154,60.388Z" style="fill:rgb(250,250,250);"/>
                <path d="M139.848,56.881C137.352,54.09 133.457,52.519 129.67,51.874C125.853,51.255 121.85,51.313 118.082,51.982C110.457,53.272 103.53,56.429 97.488,60.324C94.351,62.236 91.675,64.447 88.903,66.7C87.567,67.839 86.35,69.052 85.082,70.248L81.616,73.696C77.851,77.632 74.14,81.217 70.549,84.188C66.944,87.145 63.573,89.392 60.251,90.96C56.932,92.537 53.379,93.465 48.75,93.613C44.16,93.775 38.731,92.947 32.923,91.579C27.084,90.218 20.952,88.278 14.1,86.609C16.491,93.241 20.091,99.103 24.714,104.461C29.39,109.726 35.23,114.524 42.731,117.68C50.125,120.906 59.416,122.064 68.103,120.317C76.814,118.64 84.457,114.61 90.636,109.948C96.83,105.239 101.842,99.875 106.067,94.298C107.233,92.757 107.85,91.895 108.694,90.691L111.027,87.235C112.648,85.098 114.124,82.664 115.728,80.546C118.874,76.111 121.976,71.681 125.58,67.6C127.394,65.53 129.307,63.55 131.565,61.647C132.691,60.718 133.908,59.809 135.256,58.99C136.624,58.107 138.069,57.416 139.848,56.881Z" style="fill:rgb(236,121,107);"/>
                <path d="M139.848,56.881C137.167,50.115 132.182,44.419 125.491,40.217C118.841,36.06 109.605,33.939 100.452,35.747C95.931,36.622 91.55,38.305 87.706,40.547C83.879,42.78 80.45,45.469 77.481,48.352C75.999,49.799 74.654,51.308 73.318,52.826L69.854,57.242L64.504,64.351C57.684,73.498 50.339,84.217 38.286,87.393C26.454,90.511 21.322,87.749 14.1,86.609C15.421,90.018 17.057,93.328 19.274,96.241C21.45,99.212 24.02,102.003 27.216,104.396C28.831,105.545 30.536,106.679 32.429,107.641C34.315,108.57 36.347,109.388 38.517,110.003C42.833,111.186 47.692,111.601 52.397,110.964C57.104,110.336 61.603,108.845 65.536,106.864C69.497,104.901 72.948,102.511 76.03,99.989C82.155,94.902 86.92,89.281 90.944,83.6C92.969,80.759 94.806,77.865 96.506,74.97L98.506,71.524C99.118,70.516 99.736,69.502 100.364,68.558C102.899,64.765 105.378,61.724 108.389,59.441C111.358,57.1 115.493,55.369 121.018,54.967C126.52,54.561 132.872,55.312 139.848,56.881Z" style="fill:rgb(250,250,250);"/>
                <path d="M110.081,113.097C110.081,118.067 114.112,122.097 119.081,122.097C124.051,122.097 128.076,118.067 128.076,113.097C128.076,108.128 124.051,104.097 119.081,104.097C114.112,104.097 110.081,108.128 110.081,113.097Z" style="fill:rgb(236,121,107);"/>
            </g>
        </g>
    </g>
</svg>
