<?xml version="1.0" encoding="UTF-8" standalone="no"?>
<!DOCTYPE svg PUBLIC "-//W3C//DTD SVG 1.1//EN" "http://www.w3.org/Graphics/SVG/1.1/DTD/svg11.dtd">
<svg width="100%" height="100%" viewBox="0 0 1024 1024" version="1.1" xmlns="http://www.w3.org/2000/svg" xmlns:xlink="http://www.w3.org/1999/xlink" xml:space="preserve" xmlns:serif="http://www.serif.com/" style="fill-rule:evenodd;clip-rule:evenodd;stroke-linejoin:round;stroke-miterlimit:2;">
    <g id="usdt.svg" transform="matrix(3.01682,0,0,3.01682,512,512)">
        <g transform="matrix(1,0,0,1,-169.715,-147.635)">
            <clipPath id="_clip1">
                <rect x="0" y="0" width="339.43" height="295.27"/>
            </clipPath>
            <g clip-path="url(#_clip1)">
                <path d="M62.15,1.45L0.26,131.45C-0.222,132.44 -0.002,133.636 0.8,134.39L167.95,294.56C168.931,295.5 170.499,295.5 171.48,294.56L338.63,134.4C339.432,133.646 339.652,132.45 339.17,131.46L277.28,1.46C276.873,0.57 275.979,-0.003 275,0L64.45,0C63.466,-0.012 62.563,0.557 62.15,1.45Z" style="fill:rgb(80,175,149);"/>
                <path d="M191.19,144.8C189.99,144.89 183.79,145.26 169.96,145.26C158.96,145.26 151.15,144.93 148.41,144.8C105.9,142.93 74.17,135.53 74.17,126.67C74.17,117.81 105.9,110.42 148.41,108.52L148.41,137.43C151.19,137.63 159.15,138.1 170.15,138.1C183.35,138.1 189.96,137.55 191.15,137.44L191.15,108.54C233.57,110.43 265.23,117.83 265.23,126.67C265.23,135.51 233.58,142.91 191.15,144.79L191.19,144.8ZM191.19,105.55L191.19,79.68L250.39,79.68L250.39,40.23L89.21,40.23L89.21,79.68L148.4,79.68L148.4,105.54C100.29,107.75 64.11,117.28 64.11,128.7C64.11,140.12 100.29,149.64 148.4,151.86L148.4,234.76L191.18,234.76L191.18,151.83C239.18,149.62 275.3,140.1 275.3,128.69C275.3,117.28 239.21,107.76 191.18,105.54L191.19,105.55Z" style="fill:white;"/>
            </g>
        </g>
    </g>
</svg>
