<?xml version="1.0" encoding="UTF-8" standalone="no"?>
<!DOCTYPE svg PUBLIC "-//W3C//DTD SVG 1.1//EN" "http://www.w3.org/Graphics/SVG/1.1/DTD/svg11.dtd">
<svg width="100%" height="100%" viewBox="0 0 1024 1024" version="1.1" xmlns="http://www.w3.org/2000/svg" xmlns:xlink="http://www.w3.org/1999/xlink" xml:space="preserve" xmlns:serif="http://www.serif.com/" style="fill-rule:evenodd;clip-rule:evenodd;stroke-linejoin:round;stroke-miterlimit:2;">
    <g id="xaman.svg" transform="matrix(4,0,0,4,512,512)">
        <g transform="matrix(1,0,0,1,-128,-128)">
            <g>
                <clipPath id="_clip1">
                    <path d="M256,60L256,196C256,229.115 229.115,256 196,256L60,256C26.885,256 0,229.115 0,196L0,60C0,26.885 26.885,0 60,0L196,0C229.115,0 256,26.885 256,60Z"/>
                </clipPath>
                <g clip-path="url(#_clip1)">
                    <rect x="0" y="0" width="256" height="256" style="fill:rgb(0,48,207);fill-rule:nonzero;"/>
                    <path d="M152.782,-237.338C208.3,-217.323 262.183,-172.694 293.914,-136.359C325.73,-99.924 348.213,-57.02 353.261,-7.521C358.31,41.991 345.885,97.805 308.403,159.993C271.003,222.046 193.662,315.306 117.769,384.037C79.834,418.39 42.088,446.777 9.737,462.036C-6.433,469.663 -21.455,474.107 -34.596,474.241C-47.838,474.377 -59.219,470.122 -67.72,460.386C-76.067,450.829 -82.188,435.331 -86.534,415.717C-90.899,396.021 -93.545,371.827 -94.705,344.557C-97.023,290.008 -93.402,222.861 -85.486,154.174C-77.568,85.477 -65.345,15.16 -50.432,-45.743C-35.536,-106.57 -17.897,-158.26 0.948,-189.527C19.895,-220.964 43.867,-238.082 70.27,-244.693C96.587,-251.283 124.997,-247.355 152.782,-237.338ZM71.606,-239.358C46.78,-233.142 23.949,-217.035 5.658,-186.688C-12.736,-156.17 -30.219,-105.16 -45.089,-44.435C-59.941,16.215 -72.127,86.303 -80.022,154.804C-87.918,223.313 -91.512,290.155 -89.21,344.323C-88.058,371.411 -85.435,395.258 -81.165,414.527C-76.877,433.878 -70.999,448.27 -63.578,456.769C-56.311,465.09 -46.578,468.863 -34.652,468.742C-22.624,468.619 -8.424,464.521 7.391,457.061C39.009,442.148 76.28,414.189 114.077,379.96C189.644,311.524 266.616,218.67 303.692,157.154C340.688,95.774 352.695,41.139 347.789,-6.963C342.883,-55.077 321.025,-96.951 289.771,-132.741C258.429,-168.631 205.281,-212.564 150.917,-232.164C123.76,-241.954 96.516,-245.596 71.606,-239.358Z" style="fill:url(#_Linear2);"/>
                    <path d="M150.397,-201.063C200.421,-183.028 248.952,-142.828 277.529,-110.104C306.193,-77.28 326.459,-38.615 331.009,6.003C335.56,50.634 324.356,100.926 290.598,156.936C256.922,212.81 187.297,296.764 118.976,358.637C84.829,389.561 50.833,415.131 21.681,428.881C7.11,435.754 -6.451,439.771 -18.333,439.892C-30.317,440.015 -40.642,436.161 -48.355,427.329C-55.913,418.674 -61.435,404.671 -65.349,387.005C-69.282,369.257 -71.665,347.465 -72.709,322.913C-74.797,273.8 -71.536,213.353 -64.41,151.525C-57.283,89.688 -46.281,26.391 -32.855,-28.434C-19.448,-83.184 -3.566,-129.739 13.417,-157.916C30.503,-186.264 52.134,-201.721 75.976,-207.691C99.732,-213.639 125.359,-210.089 150.397,-201.063ZM77.312,-202.355C55.048,-196.781 34.557,-182.335 18.128,-155.077C1.596,-127.648 -14.131,-81.774 -27.513,-27.126C-40.877,27.447 -51.842,90.515 -58.947,152.155C-66.052,213.805 -69.285,273.947 -67.214,322.679C-66.178,347.05 -63.818,368.494 -59.98,385.815C-56.123,403.218 -50.846,416.115 -44.213,423.711C-37.734,431.129 -29.057,434.502 -18.389,434.393C-7.62,434.283 5.119,430.612 19.334,423.907C47.754,410.502 81.275,385.36 115.284,354.56C183.279,292.982 252.535,209.434 285.887,154.096C319.159,98.895 329.945,49.782 325.537,6.561C321.129,-36.672 301.487,-74.307 273.386,-106.486C245.198,-138.764 197.402,-178.27 148.532,-195.889C124.123,-204.689 99.661,-207.952 77.312,-202.355Z" style="fill:url(#_Linear3);"/>
                    <path d="M148.012,-164.788C192.541,-148.734 235.721,-112.961 261.144,-83.849C286.654,-54.636 304.703,-20.211 308.756,19.528C312.81,59.278 302.827,104.047 272.793,153.878C242.841,203.574 180.931,278.223 120.184,333.237C89.823,360.732 59.578,383.485 33.624,395.726C20.653,401.845 8.553,405.435 -2.071,405.544C-12.797,405.653 -22.066,402.201 -28.991,394.271C-35.76,386.52 -40.682,374.011 -44.164,358.293C-47.666,342.494 -49.785,323.104 -50.713,301.269C-52.57,257.592 -49.67,203.844 -43.335,148.876C-36.999,93.899 -27.217,37.622 -15.28,-11.125C-3.361,-59.797 10.766,-101.217 25.887,-126.305C41.111,-151.564 60.402,-165.36 81.682,-170.688C102.877,-175.995 125.721,-172.824 148.012,-164.788ZM83.018,-165.353C63.316,-160.419 45.164,-147.635 30.598,-123.466C15.928,-99.127 1.956,-58.387 -9.937,-9.817C-21.813,38.678 -31.558,94.726 -37.871,149.506C-44.186,204.296 -47.059,257.739 -45.218,301.036C-44.298,322.688 -42.201,341.731 -38.795,357.103C-35.37,372.558 -30.693,383.961 -24.848,390.654C-19.158,397.169 -11.536,400.14 -2.127,400.044C7.384,399.947 18.661,396.703 31.278,390.752C56.499,378.856 86.269,356.531 116.492,329.16C176.914,274.441 238.454,200.198 268.082,151.039C297.63,102.016 307.194,58.426 303.284,20.086C299.373,-18.267 281.949,-51.663 257.001,-80.231C231.967,-108.898 189.523,-143.976 146.146,-159.614C124.484,-167.423 102.806,-170.308 83.018,-165.353Z" style="fill:url(#_Linear4);"/>
                    <path d="M145.627,-128.513C184.662,-114.44 222.491,-83.095 244.76,-57.594C267.117,-31.993 282.949,-1.806 286.504,33.052C290.06,67.921 281.3,107.168 254.99,150.821C228.761,194.338 174.566,259.681 121.392,307.837C94.817,331.904 68.323,351.839 45.568,362.572C34.196,367.936 23.557,371.099 14.191,371.195C4.724,371.291 -3.489,368.241 -9.626,361.214C-15.607,354.365 -19.928,343.35 -22.98,329.581C-26.049,315.73 -27.905,298.742 -28.718,279.625C-30.343,241.384 -27.804,194.336 -22.26,146.228C-16.714,98.111 -8.152,48.854 2.297,6.184C12.727,-36.411 25.098,-72.696 38.357,-94.695C51.719,-116.864 68.67,-128.998 87.388,-133.686C106.022,-138.352 126.083,-135.558 145.627,-128.513ZM88.724,-128.35C71.583,-124.058 55.772,-112.935 43.067,-91.855C30.259,-70.605 18.044,-35.001 7.639,7.492C-2.748,49.909 -11.273,98.937 -16.796,146.857C-22.32,194.788 -24.832,241.531 -23.222,279.392C-22.418,298.326 -20.584,314.967 -17.61,328.391C-14.617,341.897 -10.54,351.806 -5.483,357.596C-0.582,363.209 5.985,365.778 14.135,365.695C22.388,365.611 32.204,362.794 43.222,357.597C65.244,347.21 91.263,327.702 117.7,303.76C170.549,255.9 224.374,190.962 250.28,147.982C276.102,105.137 284.445,67.069 281.032,33.61C277.619,0.138 262.412,-29.019 240.618,-53.976C218.737,-79.032 181.644,-109.681 143.762,-123.339C124.847,-130.158 105.951,-132.664 88.724,-128.35Z" style="fill:url(#_Linear5);"/>
                    <path d="M143.242,-92.238C176.783,-80.145 209.26,-53.229 228.376,-31.339C247.579,-9.349 261.194,16.599 264.251,46.576C267.309,76.565 259.771,110.289 237.184,147.764C214.679,185.103 168.201,241.14 122.6,282.438C99.812,303.075 77.069,320.193 57.512,329.417C47.739,334.027 38.561,336.763 30.454,336.846C22.245,336.929 15.087,334.28 9.739,328.156C4.547,322.21 0.825,312.69 -1.794,300.869C-4.432,288.966 -6.025,274.38 -6.722,257.982C-8.116,225.176 -5.938,184.827 -1.184,143.579C3.571,102.322 10.912,60.085 19.873,23.493C28.815,-13.024 39.429,-44.174 50.827,-63.084C62.327,-82.164 76.937,-92.637 93.095,-96.683C109.167,-100.707 126.445,-98.293 143.242,-92.238ZM94.431,-91.348C79.851,-87.697 66.38,-78.235 55.537,-60.245C44.591,-42.084 34.132,-11.614 25.215,24.801C16.316,61.14 9.012,103.148 4.28,144.209C-0.454,185.279 -2.605,225.323 -1.227,257.748C-0.537,273.965 1.032,288.203 3.575,299.679C6.136,311.237 9.614,319.651 13.882,324.539C17.995,329.248 23.505,331.416 30.398,331.346C37.392,331.274 45.747,328.885 55.165,324.443C73.99,315.564 96.257,298.874 118.908,278.361C164.183,237.358 210.292,181.726 232.474,144.924C254.573,108.258 261.694,75.713 258.779,47.134C255.864,18.543 242.874,-6.376 224.234,-27.721C205.507,-49.166 173.765,-75.387 141.377,-87.063C125.209,-92.892 109.096,-95.02 94.431,-91.348Z" style="fill:url(#_Linear6);"/>
                    <path d="M140.857,-55.963C168.904,-45.851 196.029,-23.363 211.992,-5.084C228.041,13.295 239.439,35.004 241.999,60.1C244.559,85.208 238.242,113.41 219.38,144.706C200.598,175.867 161.835,222.599 123.807,257.038C104.806,274.246 85.814,288.547 69.455,296.263C61.282,300.118 53.565,302.427 46.716,302.497C39.766,302.568 33.664,300.32 29.104,295.099C24.7,290.056 21.578,282.03 19.391,272.157C17.185,262.202 15.856,250.018 15.274,236.338C14.111,208.968 15.928,175.319 19.891,140.93C23.856,106.533 29.976,71.316 37.449,40.802C44.903,10.362 53.761,-15.653 63.296,-31.473C72.934,-47.464 85.205,-56.276 98.801,-59.681C112.311,-63.064 126.808,-61.028 140.857,-55.963ZM100.137,-54.345C88.119,-51.336 76.988,-43.535 68.007,-28.634L65.652,-30.054L68.007,-28.634C58.923,-13.562 50.22,11.773 42.791,42.11C35.381,72.372 29.297,107.359 25.355,141.56C21.412,175.77 19.622,209.115 20.769,236.104C21.343,249.603 22.649,261.439 24.76,270.967C26.89,280.577 29.767,287.496 33.247,291.481L31.176,293.29L33.247,291.481C36.572,295.288 41.026,297.055 46.66,296.997C52.396,296.938 59.29,294.976 67.109,291.288C82.735,283.918 101.252,270.045 120.115,252.961C157.818,218.817 196.211,172.491 214.669,141.867C233.045,111.379 238.944,84.356 236.527,60.658C234.109,36.948 223.336,16.268 207.849,-1.466C192.276,-19.299 165.886,-41.093 138.992,-50.789C125.571,-55.627 112.24,-57.376 100.137,-54.345Z" style="fill:url(#_Linear7);"/>
                    <path d="M138.472,-19.688C161.025,-11.557 182.799,6.503 195.608,21.171C208.504,35.938 217.684,53.409 219.746,73.624C221.809,93.852 216.713,116.531 201.574,141.649C186.517,166.631 155.47,204.056 125.015,231.637C109.8,245.416 94.559,256.899 81.399,263.106C74.824,266.207 68.569,268.088 62.978,268.145C57.287,268.203 52.24,266.357 48.469,262.039C44.853,257.898 42.331,251.367 40.575,243.443C38.801,235.437 37.736,225.655 37.27,214.692C36.337,192.759 37.794,165.809 40.966,138.281C44.14,110.743 49.041,82.547 55.025,58.11C60.99,33.749 68.092,12.869 75.766,0.138C83.542,-12.764 93.473,-19.915 104.507,-22.678C115.456,-25.42 127.17,-23.762 138.472,-19.688ZM105.843,-17.343C96.386,-14.975 87.596,-8.835 80.476,2.977L78.121,1.557L80.476,2.977C73.254,14.959 66.308,35.159 60.367,59.419C54.445,83.603 49.581,111.569 46.43,138.91C43.278,166.261 41.848,192.905 42.765,214.459C43.223,225.239 44.266,234.674 45.945,242.253C47.643,249.915 49.92,255.339 52.612,258.421C55.148,261.325 58.547,262.69 62.922,262.646C67.4,262.6 72.833,261.065 79.052,258.131C91.48,252.27 106.246,241.214 121.323,227.56C151.453,200.275 182.13,163.255 196.864,138.81C211.516,114.5 216.193,93 214.274,74.182C212.354,55.352 203.798,38.912 191.465,24.789C179.045,10.567 158.007,-6.798 136.607,-14.513C125.933,-18.362 115.385,-19.732 105.843,-17.343Z" style="fill:url(#_Linear8);"/>
                    <path d="M136.087,16.588C153.146,22.738 169.568,36.37 179.224,47.426C188.966,58.582 195.93,71.814 197.494,87.148C199.059,102.495 195.185,119.652 183.77,138.592C172.436,157.395 149.105,185.515 126.223,206.238C114.794,216.587 103.304,225.253 93.342,229.952C88.367,232.298 83.573,233.753 79.241,233.797C74.808,233.842 70.817,232.398 67.834,228.982L69.905,227.173L67.834,228.982C65.007,225.744 63.085,220.708 61.76,214.732C60.418,208.673 59.616,201.293 59.265,193.049C58.564,176.551 59.66,156.3 62.042,135.632C64.425,114.954 68.105,93.778 72.601,75.419C77.078,57.135 82.424,41.39 88.236,31.748C94.15,21.936 101.74,16.446 110.213,14.325C118.601,12.224 127.532,13.503 136.087,16.588ZM111.549,19.66C104.654,21.386 98.204,25.865 92.946,34.587L90.591,33.168L92.946,34.587C87.586,43.481 82.395,58.545 77.943,76.727C73.509,94.834 69.866,115.78 67.506,136.261C65.144,156.752 64.075,176.698 64.76,192.815C65.103,200.878 65.882,207.91 67.13,213.542C68.396,219.255 70.074,223.185 71.977,225.364L69.922,227.158L71.977,225.364C73.725,227.366 76.068,228.329 79.185,228.298C82.404,228.265 86.376,227.157 90.996,224.977C100.225,220.624 111.24,212.386 122.531,202.161C145.087,181.733 168.049,154.019 179.059,135.752C189.987,117.621 193.443,101.643 192.022,87.706C190.599,73.757 184.26,61.555 175.081,51.044C165.815,40.433 150.128,27.496 134.222,21.762C126.295,18.904 118.53,17.912 111.549,19.66Z" style="fill:url(#_Linear9);"/>
                    <path d="M133.702,52.863C145.267,57.032 156.338,66.236 162.84,73.681C169.428,81.226 174.175,90.219 175.241,100.673C176.308,111.139 173.656,122.774 165.965,135.534C158.355,148.16 142.739,166.974 127.43,180.838C119.788,187.759 112.049,193.607 105.286,196.797C101.91,198.389 98.577,199.417 95.503,199.448C92.328,199.481 89.393,198.437 87.199,195.925C85.16,193.59 83.838,190.048 82.945,186.02C82.034,181.91 81.496,176.932 81.261,171.405C80.791,160.343 81.526,146.792 83.117,132.983C84.71,119.165 87.169,105.01 90.177,92.728C93.166,80.522 96.756,69.912 100.705,63.359C104.757,56.636 110.008,52.808 115.919,51.327C121.746,49.868 127.894,50.769 133.702,52.863ZM117.255,56.663C112.921,57.748 108.811,60.565 105.416,66.198L103.06,64.779L105.416,66.198C101.917,72.002 98.483,81.932 95.519,94.036C92.573,106.065 90.151,119.991 88.581,133.613C87.01,147.244 86.302,160.49 86.756,171.171C86.983,176.516 87.499,181.147 88.315,184.83C89.149,188.595 90.227,191.031 91.342,192.307C92.301,193.405 93.588,193.968 95.447,193.949C97.407,193.929 99.918,193.248 102.939,191.823C108.97,188.978 116.234,183.557 123.738,176.761C138.722,163.192 153.968,144.784 161.254,132.695L163.609,134.115L161.254,132.695C168.458,120.742 170.693,110.287 169.769,101.231C168.844,92.162 164.723,84.199 158.697,77.299L160.768,75.49L158.697,77.299C152.584,70.299 142.249,61.791 131.837,58.037C126.657,56.17 121.675,55.556 117.255,56.663Z" style="fill:url(#_Linear10);"/>
                    <path d="M131.318,89.138C137.388,91.327 143.107,96.102 146.456,99.936C149.891,103.87 152.42,108.623 152.988,114.197C153.558,119.782 152.127,125.895 148.16,132.477L145.805,131.057L148.16,132.477C144.275,138.924 136.374,148.432 128.638,155.438C124.783,158.93 120.794,161.961 117.23,163.642C115.453,164.48 113.581,165.081 111.766,165.099C109.849,165.119 107.97,164.477 106.564,162.867C105.313,161.435 104.591,159.387 104.13,157.307C103.651,155.146 103.376,152.57 103.257,149.761C103.018,144.135 103.392,137.283 104.193,130.334C104.995,123.376 106.234,116.241 107.753,110.037C109.254,103.908 111.087,98.433 113.175,94.97C115.365,91.336 118.276,89.169 121.626,88.33C124.891,87.512 128.256,88.034 131.318,89.138ZM122.962,93.665C121.189,94.109 119.419,95.265 117.885,97.809C116.249,100.524 114.571,105.319 113.095,111.345C111.638,117.296 110.436,124.202 109.657,130.964C108.876,137.735 108.529,144.281 108.752,149.527C108.864,152.154 109.116,154.382 109.5,156.117C109.903,157.934 110.38,158.875 110.707,159.249C110.878,159.445 111.109,159.605 111.71,159.599C112.411,159.592 113.461,159.338 114.883,158.668C117.715,157.332 121.229,154.728 124.946,151.361C132.357,144.651 139.888,135.548 143.45,129.638C146.93,123.863 147.943,118.93 147.517,114.755C147.09,110.567 145.185,106.843 142.313,103.554C139.354,100.165 134.37,96.085 129.452,94.312C127.02,93.435 124.82,93.2 122.962,93.665Z" style="fill:url(#_Linear11);"/>
                    <path d="M230.874,111.764C236.613,105.528 236.143,95.88 229.828,90.214C223.513,84.549 213.741,85.011 208.005,91.247L166.854,135.971L150.217,118.722C144.333,112.621 134.553,112.385 128.374,118.196C122.195,124.007 121.957,133.663 127.841,139.764L155.933,168.889C158.892,171.957 163.011,173.672 167.303,173.622C171.593,173.572 175.671,171.763 178.555,168.626L230.874,111.764ZM114.403,150.057L96.478,132.198L114.403,114.34C118.278,110.513 120.216,107.271 120.216,104.613C120.216,101.849 118.278,98.554 114.403,94.727C110.527,90.9 107.244,88.987 104.552,88.987C101.861,88.987 98.577,90.9 94.702,94.727L76.939,112.586L59.014,94.727C55.139,90.9 51.855,88.987 49.164,88.987C46.58,88.987 43.297,90.9 39.313,94.727C35.438,98.554 33.5,101.849 33.5,104.613C33.5,107.271 35.438,110.513 39.313,114.34L57.238,132.198L39.313,150.057C35.438,153.884 33.5,157.179 33.5,159.943C33.5,162.6 35.438,165.843 39.313,169.669C43.297,173.39 46.58,175.25 49.164,175.25C51.855,175.25 55.139,173.337 59.014,169.51L76.939,151.811L94.702,169.51C98.577,173.337 101.861,175.25 104.552,175.25C107.244,175.25 110.527,173.39 114.403,169.669C118.278,165.843 120.216,162.6 120.216,159.943C120.216,157.179 118.278,153.884 114.403,150.057Z" style="fill:white;"/>
                </g>
            </g>
        </g>
    </g>
    <defs>
        <linearGradient id="_Linear2" x1="0" y1="0" x2="1" y2="0" gradientUnits="userSpaceOnUse" gradientTransform="matrix(-114.334,721.875,-721.875,-114.334,185.167,-232.938)"><stop offset="0" style="stop-color:rgb(34,71,255);stop-opacity:1"/><stop offset="0.45" style="stop-color:rgb(34,71,255);stop-opacity:1"/><stop offset="1" style="stop-color:rgb(13,28,101);stop-opacity:1"/></linearGradient>
        <linearGradient id="_Linear3" x1="0" y1="0" x2="1" y2="0" gradientUnits="userSpaceOnUse" gradientTransform="matrix(-102.9,649.689,-649.689,-102.9,179.45,-196.844)"><stop offset="0" style="stop-color:rgb(34,71,255);stop-opacity:1"/><stop offset="0.45" style="stop-color:rgb(34,71,255);stop-opacity:1"/><stop offset="1" style="stop-color:rgb(13,28,101);stop-opacity:1"/></linearGradient>
        <linearGradient id="_Linear4" x1="0" y1="0" x2="1" y2="0" gradientUnits="userSpaceOnUse" gradientTransform="matrix(-91.4668,577.5,-577.5,-91.4668,173.733,-160.75)"><stop offset="0" style="stop-color:rgb(34,71,255);stop-opacity:1"/><stop offset="0.45" style="stop-color:rgb(34,71,255);stop-opacity:1"/><stop offset="1" style="stop-color:rgb(13,28,101);stop-opacity:1"/></linearGradient>
        <linearGradient id="_Linear5" x1="0" y1="0" x2="1" y2="0" gradientUnits="userSpaceOnUse" gradientTransform="matrix(-80.0339,505.315,-505.315,-80.0339,168.017,-124.657)"><stop offset="0" style="stop-color:rgb(34,71,255);stop-opacity:1"/><stop offset="0.45" style="stop-color:rgb(34,71,255);stop-opacity:1"/><stop offset="1" style="stop-color:rgb(13,28,101);stop-opacity:1"/></linearGradient>
        <linearGradient id="_Linear6" x1="0" y1="0" x2="1" y2="0" gradientUnits="userSpaceOnUse" gradientTransform="matrix(-68.6003,433.125,-433.125,-68.6003,162.3,-88.5628)"><stop offset="0" style="stop-color:rgb(34,71,255);stop-opacity:1"/><stop offset="0.45" style="stop-color:rgb(34,71,255);stop-opacity:1"/><stop offset="1" style="stop-color:rgb(13,28,101);stop-opacity:1"/></linearGradient>
        <linearGradient id="_Linear7" x1="0" y1="0" x2="1" y2="0" gradientUnits="userSpaceOnUse" gradientTransform="matrix(-57.1665,360.939,-360.939,-57.1665,156.583,-52.469)"><stop offset="0" style="stop-color:rgb(34,71,255);stop-opacity:1"/><stop offset="0.45" style="stop-color:rgb(34,71,255);stop-opacity:1"/><stop offset="1" style="stop-color:rgb(13,28,101);stop-opacity:1"/></linearGradient>
        <linearGradient id="_Linear8" x1="0" y1="0" x2="1" y2="0" gradientUnits="userSpaceOnUse" gradientTransform="matrix(-45.734,288.75,-288.75,-45.734,150.867,-16.3753)"><stop offset="0" style="stop-color:rgb(34,71,255);stop-opacity:1"/><stop offset="0.45" style="stop-color:rgb(34,71,255);stop-opacity:1"/><stop offset="1" style="stop-color:rgb(13,28,101);stop-opacity:1"/></linearGradient>
        <linearGradient id="_Linear9" x1="0" y1="0" x2="1" y2="0" gradientUnits="userSpaceOnUse" gradientTransform="matrix(-34.3,216.562,-216.562,-34.3,145.15,19.7185)"><stop offset="0" style="stop-color:rgb(34,71,255);stop-opacity:1"/><stop offset="0.45" style="stop-color:rgb(34,71,255);stop-opacity:1"/><stop offset="1" style="stop-color:rgb(13,28,101);stop-opacity:1"/></linearGradient>
        <linearGradient id="_Linear10" x1="0" y1="0" x2="1" y2="0" gradientUnits="userSpaceOnUse" gradientTransform="matrix(-22.867,144.375,-144.375,-22.867,139.433,55.8125)"><stop offset="0" style="stop-color:rgb(34,71,255);stop-opacity:1"/><stop offset="0.45" style="stop-color:rgb(34,71,255);stop-opacity:1"/><stop offset="1" style="stop-color:rgb(13,28,101);stop-opacity:1"/></linearGradient>
        <linearGradient id="_Linear11" x1="0" y1="0" x2="1" y2="0" gradientUnits="userSpaceOnUse" gradientTransform="matrix(-11.434,72.1877,-72.1877,-11.434,133.717,91.9063)"><stop offset="0" style="stop-color:rgb(34,71,255);stop-opacity:1"/><stop offset="0.45" style="stop-color:rgb(34,71,255);stop-opacity:1"/><stop offset="1" style="stop-color:rgb(13,28,101);stop-opacity:1"/></linearGradient>
    </defs>
</svg>
