<?xml version="1.0" encoding="UTF-8" standalone="no"?>
<!DOCTYPE svg PUBLIC "-//W3C//DTD SVG 1.1//EN" "http://www.w3.org/Graphics/SVG/1.1/DTD/svg11.dtd">
<svg width="100%" height="100%" viewBox="0 0 1024 1024" version="1.1" xmlns="http://www.w3.org/2000/svg" xmlns:xlink="http://www.w3.org/1999/xlink" xml:space="preserve" xmlns:serif="http://www.serif.com/" style="fill-rule:evenodd;clip-rule:evenodd;stroke-linejoin:round;stroke-miterlimit:2;">
    <g id="xdc.svg" transform="matrix(3.02992,0,0,3.02992,512,511.992)">
        <g transform="matrix(1,0,0,1,-168.982,-168.979)">
            <clipPath id="_clip1">
                <rect x="0" y="0" width="337.963" height="337.958"/>
            </clipPath>
            <g clip-path="url(#_clip1)">
                <g>
                    <g>
                        <g id="Shape_1_3_">
                            <g>
                                <path d="M337.963,152.844C299.131,-72.137 5.365,-28.6 0.123,152.844C17.079,161.642 27.727,166.987 27.727,166.987C27.727,166.987 18.74,172.368 0,184.342C33.855,404.904 322.559,372.873 337.906,184.088C319.551,172.835 309.543,166.897 309.543,166.897C309.543,166.897 318.127,162.808 337.963,152.844ZM193.422,231.398L165.867,184.026L137.818,231.398L116.661,229.948L156.515,162.76L120.595,104.756L142.247,102.821L167.831,145.842L193.421,104.756L213.595,105.239L180.136,162.278L217.036,230.916L193.422,231.398Z" style="fill:rgb(183,181,177);fill-rule:nonzero;"/>
                            </g>
                        </g>
                        <g id="Shape_1_2_">
                            <g>
                                <path d="M324.256,144.143C271.613,-55.772 30.346,-1.687 13.82,144.143C47.296,162.979 54.892,167.406 54.892,167.406C54.892,167.406 41.954,175.678 13.706,193.62C49.619,385.809 309.938,348.875 324.204,193.386C297.933,176.919 282.434,167.323 282.434,167.323C282.434,167.323 317.857,147.524 324.256,144.143ZM193.418,231.655L165.865,184.294L137.822,231.655L116.668,230.205L156.516,163.029L120.604,105.037L142.25,103.102L167.832,146.114L193.418,105.036L213.588,105.519L180.131,162.544L217.029,231.169L193.418,231.655Z" style="fill:rgb(36,75,129);fill-rule:nonzero;"/>
                            </g>
                        </g>
                    </g>
                </g>
            </g>
        </g>
    </g>
</svg>
