<?xml version="1.0" encoding="UTF-8" standalone="no"?>
<!DOCTYPE svg PUBLIC "-//W3C//DTD SVG 1.1//EN" "http://www.w3.org/Graphics/SVG/1.1/DTD/svg11.dtd">
<svg width="100%" height="100%" viewBox="0 0 1024 1024" version="1.1" xmlns="http://www.w3.org/2000/svg" xmlns:xlink="http://www.w3.org/1999/xlink" xml:space="preserve" xmlns:serif="http://www.serif.com/" style="fill-rule:evenodd;clip-rule:evenodd;stroke-linejoin:round;stroke-miterlimit:2;">
    <g id="xlm.svg" transform="matrix(4.33237,0,0,4.33237,512,512)">
        <g transform="matrix(1,0,0,1,-118.18,-100)">
            <clipPath id="_clip1">
                <rect x="0" y="0" width="236.36" height="200"/>
            </clipPath>
            <g clip-path="url(#_clip1)">
                <g id="Layer_2">
                    <g id="Layer_1-2">
                        <path d="M203,26.16L174.54,40.66L37.11,110.66C36.645,107.116 36.411,103.545 36.41,99.97C36.469,55.098 73.408,18.208 118.28,18.208C132.255,18.208 145.999,21.786 158.2,28.6L174.49,20.3L176.92,19.06C159.845,6.667 139.278,-0.01 118.18,-0.01C63.322,-0.01 18.18,45.131 18.18,99.99C18.18,99.993 18.18,99.997 18.18,100C18.18,102.547 18.277,105.083 18.47,107.61C19.023,114.912 15.114,121.866 8.59,125.19L0,129.57L0,150L25.29,137.11L33.48,132.93L41.55,128.82L186.43,55L202.71,46.71L236.36,29.56L236.36,9.14L203,26.16Z" style="fill-rule:nonzero;"/>
                        <path d="M236.36,50L49.78,145L33.5,153.31L0,170.38L0,190.79L33.27,173.84L61.73,159.34L199.3,89.24C199.765,92.808 199.999,96.402 200,100C199.972,144.893 163.023,181.819 118.13,181.819C104.109,181.819 90.32,178.217 78.09,171.36L77.09,171.89L59.43,180.89C76.507,193.288 97.077,199.968 118.18,199.968C173.026,199.968 218.162,154.846 218.18,100C218.18,97.43 218.08,94.86 217.89,92.32C217.338,85.021 221.241,78.069 227.76,74.74L236.36,70.36L236.36,50Z" style="fill-rule:nonzero;"/>
                    </g>
                </g>
            </g>
        </g>
    </g>
</svg>
