<?xml version="1.0" encoding="UTF-8" standalone="no"?>
<!DOCTYPE svg PUBLIC "-//W3C//DTD SVG 1.1//EN" "http://www.w3.org/Graphics/SVG/1.1/DTD/svg11.dtd">
<svg width="100%" height="100%" viewBox="0 0 1024 1024" version="1.1" xmlns="http://www.w3.org/2000/svg" xmlns:xlink="http://www.w3.org/1999/xlink" xml:space="preserve" xmlns:serif="http://www.serif.com/" style="fill-rule:evenodd;clip-rule:evenodd;stroke-linejoin:round;stroke-miterlimit:2;">
    <g id="xrp.svg" transform="matrix(2,0,0,2,512,512)">
        <g transform="matrix(1,0,0,1,-256,-212)">
            <g id="Layer_2">
                <g id="Layer_1-2">
                    <path d="M437,0L511,0L357,152.48C301.23,207.67 210.81,207.67 155,152.48L0.94,0L75,0L192,115.83C227.242,150.564 284.668,150.564 319.91,115.83L437,0Z" style="fill:rgb(35,41,47);fill-rule:nonzero;"/>
                    <path d="M74.05,424L0,424L155,270.58C210.77,215.39 301.19,215.39 357,270.58L512,424L438,424L320,307.23C284.758,272.496 227.332,272.496 192.09,307.23L74.05,424Z" style="fill:rgb(35,41,47);fill-rule:nonzero;"/>
                </g>
            </g>
        </g>
    </g>
</svg>
