<svg width="292" height="47" viewBox="0 0 292 47" fill="none" xmlns="http://www.w3.org/2000/svg">
<path d="M71.5755 23.9585H74.6153V30.8695C73.6627 31.5797 72.5368 32.1599 71.2378 32.6103C69.9387 33.0433 68.6656 33.2598 67.4185 33.2598C65.6345 33.2598 64.0063 32.8441 62.534 32.0127C61.0791 31.1813 59.9272 30.0555 59.0785 28.6351C58.2298 27.1975 57.8054 25.6127 57.8054 23.8806C57.8054 22.1485 58.2384 20.5809 59.1045 19.1779C59.9705 17.7576 61.1483 16.6404 62.6379 15.8264C64.1449 14.995 65.8077 14.5793 67.6264 14.5793C68.9254 14.5793 70.2072 14.8131 71.4716 15.2808C72.736 15.7484 73.8272 16.3893 74.7452 17.2034L72.7706 19.7755C72.0778 19.1173 71.2724 18.6064 70.3544 18.2426C69.4537 17.8789 68.5444 17.697 67.6264 17.697C66.4832 17.697 65.4266 17.9741 64.4566 18.5284C63.504 19.0654 62.7505 19.8102 62.1963 20.7628C61.642 21.7155 61.3649 22.7547 61.3649 23.8806C61.3649 25.0237 61.642 26.0717 62.1963 27.0243C62.7678 27.9769 63.53 28.7304 64.4826 29.2847C65.4353 29.8389 66.4918 30.1161 67.6523 30.1161C68.2759 30.1161 68.9254 30.0208 69.6009 29.8303C70.2938 29.6224 70.952 29.3366 71.5755 28.9729V23.9585ZM78.6442 14.8131H82.1257V33H78.6442V14.8131ZM84.4034 14.8131H88.1447L93.4968 29.1288L98.9009 14.8131H102.486L95.2116 33H91.6002L84.4034 14.8131ZM104.803 14.8131H108.285V33H104.803V14.8131ZM125.424 14.8131H128.801V33H125.502L116.148 20.477V33H112.745V14.8131H116.044L125.424 27.3621V14.8131ZM145.612 23.9585H148.652V30.8695C147.699 31.5797 146.573 32.1599 145.274 32.6103C143.975 33.0433 142.702 33.2598 141.455 33.2598C139.671 33.2598 138.043 32.8441 136.571 32.0127C135.116 31.1813 133.964 30.0555 133.115 28.6351C132.266 27.1975 131.842 25.6127 131.842 23.8806C131.842 22.1485 132.275 20.5809 133.141 19.1779C134.007 17.7576 135.185 16.6404 136.674 15.8264C138.181 14.995 139.844 14.5793 141.663 14.5793C142.962 14.5793 144.244 14.8131 145.508 15.2808C146.773 15.7484 147.864 16.3893 148.782 17.2034L146.807 19.7755C146.114 19.1173 145.309 18.6064 144.391 18.2426C143.49 17.8789 142.581 17.697 141.663 17.697C140.52 17.697 139.463 17.9741 138.493 18.5284C137.541 19.0654 136.787 19.8102 136.233 20.7628C135.679 21.7155 135.401 22.7547 135.401 23.8806C135.401 25.0237 135.679 26.0717 136.233 27.0243C136.804 27.9769 137.567 28.7304 138.519 29.2847C139.472 29.8389 140.528 30.1161 141.689 30.1161C142.312 30.1161 142.962 30.0208 143.637 29.8303C144.33 29.6224 144.989 29.3366 145.612 28.9729V23.9585ZM162.193 25.5174C162.193 26.955 162.6 28.0809 163.414 28.895C164.228 29.709 165.319 30.1161 166.688 30.1161C168.056 30.1161 169.13 29.709 169.909 28.895C170.706 28.0809 171.105 26.955 171.105 25.5174V14.8131H174.586V25.5174C174.586 27.0936 174.266 28.4706 173.625 29.6484C172.984 30.8089 172.066 31.7009 170.871 32.3245C169.693 32.948 168.299 33.2598 166.688 33.2598C165.06 33.2598 163.639 32.948 162.427 32.3245C161.232 31.7009 160.314 30.8089 159.673 29.6484C159.032 28.4706 158.712 27.0936 158.712 25.5174V14.8131H162.193V25.5174ZM191.366 14.8131H194.744V33H191.444L182.091 20.477V33H178.687V14.8131H181.987L191.366 27.3621V14.8131ZM199.214 14.8131H202.695V33H199.214V14.8131ZM204.973 14.8131H208.714L214.066 29.1288L219.47 14.8131H223.056L215.781 33H212.17L204.973 14.8131ZM225.373 14.8131H238.701V17.8529H228.854V22.3477H237.688V25.3875H228.854V29.9602H239.013V33H225.373V14.8131ZM253.93 33L250.786 27.6219C250.647 27.6392 250.431 27.6479 250.136 27.6479H246.031V33H242.55V14.8131H250.136C252.492 14.8131 254.311 15.3587 255.592 16.4499C256.874 17.5411 257.515 19.0827 257.515 21.0746C257.515 22.4949 257.203 23.7074 256.58 24.712C255.973 25.7166 255.081 26.47 253.904 26.9723L257.905 33H253.93ZM246.031 24.5821H250.136C251.453 24.5821 252.457 24.2963 253.15 23.7247C253.843 23.1531 254.189 22.3044 254.189 21.1785C254.189 20.07 253.843 19.2386 253.15 18.6843C252.457 18.13 251.453 17.8529 250.136 17.8529H246.031V24.5821ZM272.757 19.4897C271.822 18.9181 270.86 18.4765 269.873 18.1647C268.903 17.8529 268.046 17.697 267.301 17.697C266.47 17.697 265.811 17.8529 265.326 18.1647C264.841 18.4765 264.599 18.9095 264.599 19.4637C264.599 19.966 264.763 20.3904 265.093 20.7368C265.439 21.0659 265.863 21.3431 266.366 21.5682C266.885 21.7761 267.587 22.0099 268.47 22.2697C269.7 22.6335 270.705 22.9972 271.484 23.3609C272.281 23.7247 272.956 24.2616 273.51 24.9718C274.065 25.6819 274.342 26.6173 274.342 27.7778C274.342 28.8863 274.039 29.8563 273.433 30.6877C272.844 31.5017 272.021 32.1253 270.964 32.5583C269.925 32.9913 268.73 33.2079 267.379 33.2079C265.959 33.2079 264.573 32.948 263.222 32.4284C261.871 31.8915 260.693 31.1813 259.688 30.2979L261.143 27.3361C262.061 28.1848 263.092 28.8517 264.235 29.3366C265.378 29.8216 266.444 30.0641 267.431 30.0641C268.401 30.0641 269.163 29.8822 269.717 29.5185C270.271 29.1374 270.549 28.6265 270.549 27.9856C270.549 27.466 270.375 27.0416 270.029 26.7125C269.7 26.3661 269.276 26.089 268.756 25.8811C268.236 25.6733 267.526 25.4394 266.625 25.1796C265.396 24.8159 264.391 24.4608 263.612 24.1144C262.832 23.768 262.165 23.2484 261.611 22.5555C261.057 21.8454 260.78 20.9187 260.78 19.7755C260.78 18.7189 261.057 17.8009 261.611 17.0215C262.183 16.2247 262.979 15.6099 264.001 15.1768C265.041 14.7438 266.236 14.5273 267.587 14.5273C268.765 14.5273 269.925 14.7005 271.068 15.0469C272.229 15.3933 273.259 15.861 274.16 16.4499L272.757 19.4897ZM277.64 14.8131H290.968V17.8529H281.121V22.3477H289.955V25.3875H281.121V29.9602H291.28V33H277.64V14.8131Z" fill="white"/>
<g clip-path="url(#clip0_97_7907)">
<path fill-rule="evenodd" clip-rule="evenodd" d="M25.9266 25.9266C25.1685 26.0758 24.3849 26.154 23.5831 26.154C22.7813 26.154 21.9978 26.0758 21.2397 25.9266C21.0905 25.1685 21.0123 24.3849 21.0123 23.5831C21.0123 22.7813 21.0905 21.9978 21.2397 21.2397C21.9978 21.0905 22.7813 21.0123 23.5831 21.0123C24.3849 21.0123 25.1685 21.0905 25.9266 21.2397C26.0758 21.9978 26.154 22.7813 26.154 23.5831C26.154 24.3849 26.0758 25.1685 25.9266 25.9266ZM25.4145 27.7521C24.8154 27.8317 24.204 27.8727 23.5831 27.8727C22.9622 27.8727 22.3509 27.8317 21.7517 27.7521C22.1906 28.9446 22.8125 30.0486 23.5831 31.0302C24.3538 30.0486 24.9756 28.9446 25.4145 27.7521ZM19.4141 25.4145C19.3346 24.8154 19.2936 24.204 19.2936 23.5831C19.2936 22.9622 19.3346 22.3509 19.4141 21.7517C18.2217 22.1906 17.1176 22.8125 16.1361 23.5831C17.1176 24.3538 18.2217 24.9756 19.4141 25.4145ZM14.8479 24.7531C16.2889 25.9344 17.9734 26.8294 19.8148 27.3514C20.3368 29.1928 21.2319 30.8774 22.4131 32.3184C20.2472 34.384 17.3141 35.6523 14.0848 35.6523C13.283 35.6523 12.4994 35.5741 11.7413 35.4249C11.5922 34.6668 11.514 33.8833 11.514 33.0815C11.514 29.8521 12.7823 26.9191 14.8479 24.7531ZM14.8479 22.4131C16.2888 21.2319 17.9734 20.3368 19.8148 19.8148C20.3368 17.9734 21.2319 16.2889 22.4131 14.8479C20.2472 12.7823 17.3141 11.514 14.0848 11.514C13.283 11.514 12.4994 11.5922 11.7413 11.7413C11.5922 12.4994 11.514 13.283 11.514 14.0848C11.514 17.3141 12.7823 20.2472 14.8479 22.4131ZM9.91578 12.2534C9.83626 12.8526 9.79521 13.4639 9.79521 14.0848C9.79521 17.766 11.2379 21.1103 13.5887 23.5831C11.2379 26.0559 9.79521 29.4002 9.79521 33.0815C9.79521 33.7024 9.83626 34.3137 9.91578 34.9129C5.30454 33.2155 2.01562 28.7834 2.01562 23.5831C2.01563 18.3828 5.30454 13.9507 9.91578 12.2534ZM10.3165 10.3165C11.9559 4.53338 17.2748 0.296875 23.5831 0.296875C29.8915 0.296875 35.2103 4.53338 36.8498 10.3165C42.6329 11.9559 46.8694 17.2748 46.8694 23.5831C46.8694 29.8915 42.6329 35.2103 36.8498 36.8498C35.2103 42.6329 29.8915 46.8694 23.5831 46.8694C17.2748 46.8694 11.9559 42.6329 10.3165 36.8498C4.53338 35.2103 0.296875 29.8915 0.296875 23.5831C0.296875 17.2748 4.53338 11.9559 10.3165 10.3165ZM12.2534 9.91578C13.9507 5.30454 18.3828 2.01563 23.5831 2.01563C28.7834 2.01563 33.2155 5.30454 34.9129 9.91578C34.3137 9.83626 33.7024 9.79521 33.0815 9.79521C29.4002 9.79521 26.0559 11.2379 23.5831 13.5887C21.1103 11.2379 17.766 9.79521 14.0848 9.79521C13.4639 9.79521 12.8526 9.83626 12.2534 9.91578ZM35.4249 11.7413C34.6669 11.5922 33.8833 11.514 33.0815 11.514C29.8522 11.514 26.9191 12.7823 24.7531 14.8479C25.9344 16.2889 26.8294 17.9734 27.3514 19.8148C29.1928 20.3368 30.8774 21.2319 32.3184 22.4131C34.384 20.2472 35.6523 17.3141 35.6523 14.0848C35.6523 13.283 35.5741 12.4994 35.4249 11.7413ZM37.2505 12.2534C37.33 12.8526 37.371 13.4639 37.371 14.0848C37.371 17.766 35.9284 21.1103 33.5776 23.5831C35.9284 26.0559 37.371 29.4002 37.371 33.0815C37.371 33.7024 37.33 34.3137 37.2505 34.9129C41.8617 33.2155 45.1506 28.7834 45.1506 23.5831C45.1506 18.3828 41.8617 13.9507 37.2505 12.2534ZM32.3184 24.7531C34.384 26.9191 35.6523 29.8521 35.6523 33.0815C35.6523 33.8833 35.5741 34.6668 35.4249 35.4249C34.6668 35.5741 33.8833 35.6523 33.0815 35.6523C29.8522 35.6523 26.9191 34.384 24.7531 32.3184C25.9344 30.8774 26.8294 29.1928 27.3514 27.3514C29.1928 26.8294 30.8774 25.9344 32.3184 24.7531ZM31.0302 23.5831C30.0486 24.3538 28.9446 24.9756 27.7521 25.4145C27.8317 24.8154 27.8727 24.204 27.8727 23.5831C27.8727 22.9622 27.8317 22.3509 27.7521 21.7517C28.9446 22.1906 30.0486 22.8125 31.0302 23.5831ZM14.0848 37.371C17.766 37.371 21.1103 35.9284 23.5831 33.5776C26.0559 35.9284 29.4002 37.371 33.0815 37.371C33.7024 37.371 34.3137 37.33 34.9129 37.2505C33.2155 41.8617 28.7834 45.1506 23.5831 45.1506C18.3828 45.1506 13.9507 41.8617 12.2534 37.2505C12.8526 37.33 13.4639 37.371 14.0848 37.371ZM21.7517 19.4141C22.1906 18.2217 22.8125 17.1176 23.5831 16.1361C24.3538 17.1176 24.9756 18.2217 25.4145 19.4141C24.8154 19.3346 24.204 19.2936 23.5831 19.2936C22.9622 19.2936 22.3509 19.3346 21.7517 19.4141Z" fill="white"/>
</g>
<defs>
<clipPath id="clip0_97_7907">
<rect width="47" height="47" fill="white"/>
</clipPath>
</defs>
</svg>
