<?xml version="1.0" encoding="UTF-8"?>
<svg version="1.1" xmlns="http://www.w3.org/2000/svg" width="2615" height="335">
<path d="M0 0 C3.60752089 3.03466191 6.93444894 6.3151923 10.26367188 9.64941406 C11.33488281 10.61427734 11.33488281 10.61427734 12.42773438 11.59863281 C23.2880263 21.57192878 32.83949354 36.99539222 35.26367188 51.64941406 C36.22917969 51.73191406 37.1946875 51.81441406 38.18945312 51.89941406 C43.00222253 52.5957605 47.10112137 54.54988773 51.45117188 56.64941406 C52.29123779 57.05458252 53.13130371 57.45975098 53.99682617 57.87719727 C77.13951395 69.36068569 94.19670478 89.62712716 103.26367188 113.64941406 C112.15138488 140.35150581 110.0216337 169.18364964 97.48242188 194.30957031 C85.18091789 217.67120095 64.53862467 233.27425988 40.26367188 242.64941406 C39.50699219 242.72933594 38.7503125 242.80925781 37.97070312 242.89160156 C35.87860638 243.59355197 35.87860638 243.59355197 34.87695312 246.71972656 C34.43353473 248.06809775 34.00065257 249.41996182 33.57617188 250.77441406 C28.63020704 265.04316189 20.82212806 275.99423919 10.26367188 286.64941406 C9.63589844 287.32617188 9.008125 288.00292969 8.36132812 288.70019531 C-8.30436204 306.38543359 -34.36678251 315.25568125 -58.1953125 316.00512695 C-84.11622488 316.24279549 -108.58936259 307.12883672 -127.73632812 289.64941406 C-128.57550781 288.90304687 -129.4146875 288.15667969 -130.27929688 287.38769531 C-142.71688633 275.72142923 -152.8652843 259.58857264 -155.73632812 242.64941406 C-156.28417969 242.52566406 -156.83203125 242.40191406 -157.39648438 242.27441406 C-181.05332681 236.11978839 -200.6316567 218.34377976 -212.87939453 197.72509766 C-225.92122777 174.63587796 -230.10695795 146.62628489 -223.06054688 120.86035156 C-219.38050226 108.72553882 -214.47231333 97.77726749 -206.73632812 87.64941406 C-206.33961914 87.12395996 -205.94291016 86.59850586 -205.53417969 86.05712891 C-193.79234574 70.70347405 -177.98178804 58.90043683 -159.48632812 52.89941406 C-156.57025291 51.6616154 -155.85642865 50.88135606 -154.37304688 48.01660156 C-153.54992151 45.79121377 -152.7721316 43.5486894 -152.03320312 41.29394531 C-148.37294477 31.00773735 -141.97836311 21.73808983 -134.73632812 13.64941406 C-133.93710938 12.75609375 -133.13789063 11.86277344 -132.31445312 10.94238281 C-98.76503165 -24.54258221 -39.01706471 -30.34904414 0 0 Z M-126.25683594 24.88183594 C-135.46278912 35.84481943 -135.46278912 35.84481943 -139.73632812 48.64941406 C-139.1140332 48.6284668 -138.49173828 48.60751953 -137.85058594 48.5859375 C-109.73284578 47.770781 -82.47952956 52.55966477 -61.06445312 72.36425781 C-60.62617188 72.78835937 -60.18789062 73.21246094 -59.73632812 73.64941406 C-56.20942402 72.08373233 -53.48909025 69.93165633 -50.48632812 67.52441406 C-32.99771047 54.13396882 -12.53815969 48.99333869 9.20117188 48.08691406 C10.17119141 48.04373047 11.14121094 48.00054687 12.140625 47.95605469 C14.51485788 47.85079313 16.88918109 47.74865699 19.26367188 47.64941406 C9.48687609 25.50784714 -5.88945627 9.68017391 -28.35742188 0.10644531 C-63.71766279 -13.10039165 -101.11696673 -3.07255373 -126.25683594 24.88183594 Z M-144.73632812 63.64941406 C-149.4612712 76.80019919 -146.25349931 95.78959234 -141.73632812 108.64941406 C-141.11757812 110.42638672 -141.11757812 110.42638672 -140.48632812 112.23925781 C-136.91349158 121.42510178 -131.18387068 133.01771902 -122.73632812 138.64941406 C-122.27484375 138.28589844 -121.81335938 137.92238281 -121.33789062 137.54785156 C-114.7900722 132.50111404 -108.31752106 127.63912037 -100.30664062 125.27832031 C-92.002141 123.08567954 -92.002141 123.08567954 -85.45166016 117.96728516 C-83.46952042 114.05031933 -82.43795808 109.87709666 -81.34472656 105.64453125 C-79.33379366 99.05009156 -74.82141293 93.05830898 -70.79882812 87.52441406 C-68.5420255 84.96828381 -68.5420255 84.96828381 -68.73632812 82.64941406 C-84.38803144 68.52308861 -105.4381669 61.4738106 -126.17382812 61.46191406 C-127.29337891 61.44966797 -128.41292969 61.43742187 -129.56640625 61.42480469 C-137.41029367 61.24441501 -137.41029367 61.24441501 -144.73632812 63.64941406 Z M-48.73632812 82.64941406 C-47.25375623 86.89209321 -45.00699606 90.3476346 -42.48632812 94.02441406 C-38.34791288 100.22911726 -35.51705637 106.49109804 -32.92773438 113.46972656 C-31.39435958 118.26033266 -31.39435958 118.26033266 -28.04736328 121.7109375 C-27.04648682 122.10587402 -27.04648682 122.10587402 -26.02539062 122.50878906 C-25.28047363 122.8161499 -24.53555664 123.12351074 -23.76806641 123.44018555 C-22.57673096 123.91500366 -22.57673096 123.91500366 -21.36132812 124.39941406 C-14.32873156 127.33818996 -8.29632038 130.58651372 -2.11914062 135.08300781 C0.09778898 136.54036646 1.67283927 137.22162542 4.26367188 137.64941406 C19.19394527 120.77344014 26.87174688 100.0467749 26.46679688 77.40332031 C26.09967429 72.42598522 25.22023879 67.54327874 24.26367188 62.64941406 C0.13647307 54.60701446 -30.6191371 66.59686019 -48.73632812 82.64941406 Z M39.26367188 67.64941406 C39.25432617 68.34276855 39.24498047 69.03612305 39.23535156 69.75048828 C38.91430609 88.78974372 37.75915446 106.32714874 29.26367188 123.64941406 C28.49216797 125.25042969 28.49216797 125.25042969 27.70507812 126.88378906 C23.73462659 134.69631726 19.05600621 141.09527612 13.26367188 147.64941406 C13.61558594 148.09929687 13.9675 148.54917969 14.33007812 149.01269531 C27.77217431 166.52602689 37.77033806 186.26273393 38.58007812 208.70410156 C38.62197266 209.81269531 38.66386719 210.92128906 38.70703125 212.06347656 C38.74634766 213.20558594 38.78566406 214.34769531 38.82617188 215.52441406 C38.86935547 216.68972656 38.91253906 217.85503906 38.95703125 219.05566406 C39.06268816 221.92014031 39.16478986 224.78469727 39.26367188 227.64941406 C60.21395486 219.74906649 77.62249367 204.01323916 87.26367188 183.64941406 C95.62390878 162.47738554 98.40819657 138.09014071 89.40185547 116.59228516 C85.61089446 108.03847349 81.07949184 99.99978519 75.26367188 92.64941406 C74.67199219 91.89402344 74.0803125 91.13863281 73.47070312 90.36035156 C65.15584462 80.38252136 54.07616041 72.93529023 42.26367188 67.64941406 C41.27367187 67.64941406 40.28367187 67.64941406 39.26367188 67.64941406 Z M-187.73632812 86.64941406 C-203.70868617 102.96649926 -212.86102416 124.95142161 -212.77148438 147.85253906 C-212.10339097 173.01930204 -201.44915738 193.90412028 -183.84570312 211.54394531 C-177.0190795 217.89729461 -168.50412089 223.44485901 -159.73632812 226.64941406 C-159.72174561 226.06675781 -159.70716309 225.48410156 -159.69213867 224.88378906 C-158.86558297 195.16283206 -152.49470673 171.96763568 -133.73632812 148.64941406 C-134.54070312 147.63878906 -135.34507812 146.62816406 -136.17382812 145.58691406 C-150.97629494 125.7103156 -158.99105504 104.12747916 -158.79882812 79.21191406 C-158.79431641 78.09880859 -158.78980469 76.98570313 -158.78515625 75.83886719 C-158.77344005 73.10899306 -158.75703511 70.37923232 -158.73632812 67.64941406 C-168.40898616 67.64941406 -181.27517417 80.29354662 -187.73632812 86.64941406 Z M-59.73632812 94.64941406 C-61.31777555 96.78601856 -62.75741036 98.90694329 -64.17382812 101.14941406 C-64.56892578 101.75011719 -64.96402344 102.35082031 -65.37109375 102.96972656 C-65.75845703 103.57558594 -66.14582031 104.18144531 -66.54492188 104.80566406 C-66.89353271 105.35029297 -67.24214355 105.89492187 -67.60131836 106.45605469 C-69.28649062 109.7125803 -70.44886018 113.2161662 -71.73632812 116.64941406 C-63.15632812 116.64941406 -54.57632813 116.64941406 -45.73632812 116.64941406 C-46.97382813 114.13316406 -48.21132812 111.61691406 -49.48632812 109.02441406 C-50.05818848 107.85338135 -50.05818848 107.85338135 -50.64160156 106.65869141 C-52.73839297 102.43184323 -54.89888293 98.42870031 -57.73632812 94.64941406 C-58.39632812 94.64941406 -59.05632812 94.64941406 -59.73632812 94.64941406 Z M-75.73632812 130.64941406 C-78.37652542 142.83675336 -77.91718236 153.40158091 -75.73632812 165.64941406 C-70.59456149 166.49177426 -65.6316126 166.84162752 -60.42382812 166.83691406 C-59.31213257 166.83788086 -59.31213257 166.83788086 -58.17797852 166.83886719 C-52.52582658 166.78462034 -47.20246754 166.15360967 -41.73632812 164.64941406 C-39.93757736 155.26915178 -37.23433121 140.6534079 -41.73632812 131.64941406 C-47.77951525 129.67164373 -53.55959765 129.46832934 -59.86132812 129.46191406 C-61.00686157 129.46070557 -61.00686157 129.46070557 -62.17553711 129.45947266 C-66.78765828 129.50439105 -71.18598971 129.89504761 -75.73632812 130.64941406 Z M-100.04882812 139.33691406 C-100.71333984 139.67658203 -101.37785156 140.01625 -102.0625 140.36621094 C-106.35522943 142.63783333 -109.47443199 145.04681697 -112.73632812 148.64941406 C-102.63453152 156.81651472 -102.63453152 156.81651472 -90.73632812 160.64941406 C-90.73632812 152.39941406 -90.73632812 144.14941406 -90.73632812 135.64941406 C-94.18512278 135.64941406 -97.05940416 137.74958408 -100.04882812 139.33691406 Z M-26.73632812 136.64941406 C-26.73632812 144.23941406 -26.73632812 151.82941406 -26.73632812 159.64941406 C-24.55007812 158.57691406 -22.36382812 157.50441406 -20.11132812 156.39941406 C-19.43505371 156.07038086 -18.7587793 155.74134766 -18.06201172 155.40234375 C-14.06141904 153.42009958 -10.40241672 151.19875567 -6.73632812 148.64941406 C-9.7563552 145.36077882 -12.87422878 143.18744881 -16.73632812 140.96191406 C-17.76757812 140.35992187 -18.79882812 139.75792969 -19.86132812 139.13769531 C-22.82313954 137.46436605 -22.82313954 137.46436605 -26.73632812 136.64941406 Z M-123.73632812 157.64941406 C-136.57265778 171.67429275 -145.84726436 190.26470076 -145.86914062 209.59863281 C-145.87042969 210.69369141 -145.87171875 211.78875 -145.87304688 212.91699219 C-145.86917969 214.04556641 -145.8653125 215.17414063 -145.86132812 216.33691406 C-145.86519531 217.47708984 -145.8690625 218.61726563 -145.87304688 219.79199219 C-145.87175781 220.88318359 -145.87046875 221.974375 -145.86914062 223.09863281 C-145.8680127 224.09209717 -145.86688477 225.08556152 -145.86572266 226.10913086 C-145.84357496 228.77360317 -145.84357496 228.77360317 -144.73632812 231.64941406 C-121.98782089 236.24010381 -99.73350946 232.7006932 -80.03320312 220.23925781 C-76.13547687 217.54134185 -72.40742781 214.64659206 -68.73632812 211.64941406 C-70.33565407 208.24074968 -72.3141079 205.18088508 -74.36132812 202.02441406 C-76.87955541 198.1410814 -78.9291586 194.36430967 -80.51367188 190.00488281 C-83.48378654 180.85071088 -83.48378654 180.85071088 -90.11914062 174.41503906 C-93.26831919 173.0780887 -96.52202345 172.15871017 -99.81689453 171.25341797 C-108.39159325 168.55514722 -116.43825713 162.79766569 -123.73632812 157.64941406 Z M2.26367188 157.64941406 C1.79960937 158.06191406 1.33554688 158.47441406 0.85742188 158.89941406 C-4.03864251 162.99164698 -9.11088927 166.07133273 -14.79882812 168.89941406 C-15.45882812 169.228125 -16.11882812 169.55683594 -16.79882812 169.89550781 C-20.18285328 171.53726259 -23.44437136 172.86681972 -27.04492188 173.95800781 C-30.32683413 175.16285668 -30.64837462 175.49985519 -32.54882812 178.73144531 C-32.94070312 179.9625 -33.33257812 181.19355469 -33.73632812 182.46191406 C-34.20399142 183.8126843 -34.68083847 185.16030395 -35.16601562 186.50488281 C-35.41319336 187.19114746 -35.66037109 187.87741211 -35.91503906 188.58447266 C-37.26698866 191.98363725 -39.02511526 195.116723 -40.86132812 198.27441406 C-41.50328125 199.38042969 -42.14523438 200.48644531 -42.80664062 201.62597656 C-44.6233443 204.47239083 -46.57154174 207.06129167 -48.73632812 209.64941406 C-44.92716627 218.8715954 -31.51251124 223.88752081 -22.82080078 227.79199219 C-8.67257849 233.61168728 8.22772408 235.77008247 23.26367188 232.64941406 C29.60249853 223.14117408 26.36623468 207.46539139 24.24023438 196.83300781 C21.28050822 183.39781195 14.15702779 165.57831801 2.26367188 157.64941406 Z M-70.73632812 179.64941406 C-69.14503274 184.42330022 -67.43548921 188.29475162 -64.86132812 192.52441406 C-64.52230469 193.11738281 -64.18328125 193.71035156 -63.83398438 194.32128906 C-62.72155945 196.23429739 -62.72155945 196.23429739 -60.73632812 198.64941406 C-59.41632813 198.64941406 -58.09632813 198.64941406 -56.73632812 198.64941406 C-55.13381657 196.61150314 -53.88572813 194.75340266 -52.61132812 192.52441406 C-52.26457031 191.95464844 -51.9178125 191.38488281 -51.56054688 190.79785156 C-49.35272578 187.07585432 -48.13392454 183.84220331 -46.73632812 179.64941406 C-54.65632813 179.64941406 -62.57632813 179.64941406 -70.73632812 179.64941406 Z M-64.92382812 225.64941406 C-83.31823025 239.81583234 -103.85861376 245.67757833 -126.92382812 246.27441406 C-128.16197266 246.31308594 -129.40011719 246.35175781 -130.67578125 246.39160156 C-133.69582438 246.48488475 -136.71587673 246.57067812 -139.73632812 246.64941406 C-137.52357851 259.12620238 -128.46200941 269.02191203 -119.73632812 277.64941406 C-118.93324219 278.4628125 -118.13015625 279.27621094 -117.30273438 280.11425781 C-102.18884579 294.63252518 -81.31582005 302.09800371 -60.48632812 301.96191406 C-59.11226807 301.95345459 -59.11226807 301.95345459 -57.71044922 301.94482422 C-34.17856979 301.52719642 -13.34873245 290.99345202 3.26367188 274.64941406 C11.04597904 266.38815497 15.91882674 257.05114595 20.26367188 246.64941406 C19.56508057 246.64006836 18.86648926 246.63072266 18.14672852 246.62109375 C-9.6720922 246.15504797 -33.47526265 241.43316448 -55.50585938 223.37988281 C-59.68082152 220.14081411 -61.21345373 222.68512035 -64.92382812 225.64941406 Z " fill="#FFFFFF" transform="translate(225.736328125,19.3505859375)"/>
<path d="M0 0 C7.92 0 15.84 0 24 0 C29.4375 9.5625 29.4375 9.5625 31.08764648 12.47094727 C34.85770655 19.08374632 38.7505069 25.6165391 42.67700195 32.13696289 C44.92047979 35.86333128 47.1470543 39.5995291 49.3671875 43.33984375 C49.72997803 43.95101044 50.09276855 44.56217712 50.46655273 45.19186401 C51.60296757 47.10691847 52.73898787 49.02220663 53.875 50.9375 C54.69763543 52.32383386 55.52030888 53.71014517 56.34301758 55.09643555 C58.04570982 57.96557634 59.74824149 60.83481234 61.45068359 63.70410156 C63.93097171 67.88405431 66.41254747 72.06324144 68.89453125 76.2421875 C73.21078331 83.50953139 77.5258525 90.77757652 81.84014893 98.04608154 C83.01683401 100.02835906 84.19370574 102.01052569 85.37060547 103.99267578 C87.26716763 107.18704716 89.16298946 110.38185682 91.05825806 113.57699585 C91.76356487 114.76579749 92.46910695 115.95445959 93.17489624 117.14297485 C94.14068001 118.7694129 95.10552177 120.3964102 96.0703125 122.0234375 C96.61445801 122.94044434 97.15860352 123.85745117 97.71923828 124.80224609 C98.52103736 126.17811253 99.28783566 127.57567133 100 129 C104.09473627 123.02606273 107.83721356 116.9422547 111.375 110.625 C116.08735783 102.29305935 120.91518899 94.03700081 125.8125 85.8125 C131.10957882 76.91349603 136.34246098 67.98089104 141.5 59 C145.33452931 52.32393283 149.18634016 45.65959224 153.109375 39.03515625 C153.45145996 38.45642258 153.79354492 37.8776889 154.14599609 37.28141785 C155.85213901 34.40016498 157.57418549 31.53118325 159.31835938 28.67260742 C162.89656487 22.77369747 166.07715296 16.99617044 168.59277344 10.56347656 C170.55130299 6.73476195 173.38053491 3.41076183 176 0 C183.92 0 191.84 0 200 0 C200 61.71 200 123.42 200 187 C191.09 187 182.18 187 173 187 C172.67 143.77 172.34 100.54 172 56 C158.85730332 77.57525787 158.85730332 77.57525787 146 99.3125 C141.54168036 106.96842072 137.05404494 114.60354605 132.48703003 122.19499207 C128.0013279 129.65283823 123.5643404 137.1394979 119.125 144.625 C117.86118645 146.75538709 116.59726619 148.88571078 115.33322144 151.01596069 C114.55729109 152.32367012 113.78150398 153.63146455 113.00588989 154.93936157 C112.00484939 156.62678883 111.00246951 158.3134213 110 160 C109.3339978 161.41563232 109.3339978 161.41563232 108.65454102 162.85986328 C107 165 107 165 103.97192383 165.98925781 C99.93612878 166.23052967 96.89421476 166.14121612 93 165 C88.74931906 160.88163902 86.35297807 155.98010654 83.6875 150.75 C82.88595929 149.27810364 82.07857046 147.80937822 81.265625 146.34375 C79.6092888 143.34891939 77.97706574 140.34282228 76.36083984 137.32617188 C72.98125473 131.06935607 69.24075717 125.04499325 65.5 119 C64.11070147 116.7254702 62.72331962 114.4499347 61.33984375 112.171875 C60.99242126 111.60025635 60.64499878 111.0286377 60.28704834 110.43969727 C55.04063956 101.79065788 49.90509811 93.074545 44.76953125 84.359375 C39.32064576 75.13818417 33.68155337 66.09048539 28 57 C27.67 99.9 27.34 142.8 27 187 C18.09 187 9.18 187 0 187 C0 125.29 0 63.58 0 0 Z " fill="#FFFFFF" transform="translate(2415,78)"/>
<path d="M0 0 C16.190625 -0.061875 32.38125 -0.12375 49.0625 -0.1875 C54.14664307 -0.21481201 59.23078613 -0.24212402 64.46899414 -0.27026367 C70.74890137 -0.28381348 70.74890137 -0.28381348 73.70262146 -0.28633118 C75.73531575 -0.29089314 77.76800268 -0.30134966 79.80064392 -0.31672668 C101.95415498 -0.47572394 123.52391785 1.51965486 140.6875 17.1875 C150.2796095 27.29267582 152.47468607 38.77214297 152.24609375 52.21875 C151.59895015 62.16216273 148.64621369 69.84771286 143 78 C142.401875 78.886875 141.80375 79.77375 141.1875 80.6875 C137.8223681 84.24492515 133.92617552 87.08892542 130 90 C130.94101563 90.44730469 131.88203125 90.89460938 132.8515625 91.35546875 C134.10958875 91.96570537 135.36738929 92.57640747 136.625 93.1875 C137.24246094 93.47947266 137.85992188 93.77144531 138.49609375 94.07226562 C149.75944593 99.58538011 156.2333583 108.62557975 160.2734375 120.359375 C163.98325433 133.8423652 163.18298019 148.95053001 156.3125 161.25 C147.37228647 174.956863 134.5463558 181.35985097 119 185 C111.21902798 186.56810996 103.74348969 187.28652723 95.81542969 187.22705078 C94.22235426 187.22741239 94.22235426 187.22741239 92.59709549 187.2277813 C89.205266 187.22630462 85.81366446 187.2111483 82.421875 187.1953125 C80.30940863 187.19236695 78.19694079 187.19032967 76.08447266 187.18920898 C68.30629265 187.17878096 60.52814402 187.1508585 52.75 187.125 C35.3425 187.08375 17.935 187.0425 0 187 C0 125.29 0 63.58 0 0 Z M28 22 C28 41.47 28 60.94 28 81 C36.06144038 81.08436391 44.12124057 81.16444196 52.18273926 81.20700073 C55.93842865 81.2279438 59.69374476 81.25582815 63.44921875 81.30175781 C67.08028751 81.34587766 70.71099913 81.36927288 74.34231567 81.37950897 C76.3714783 81.39027472 78.40050132 81.42138881 80.42944336 81.45318604 C92.73043078 81.45608922 107.71923146 80.00432012 117 71 C123.80419442 62.54542651 124.62077006 55.73215936 124 45 C122.8684797 37.99588933 118.55752467 33.186071 113 29 C100.82939045 22.1322989 87.27227323 21.69090572 73.60546875 21.8046875 C71.85586853 21.80770874 71.85586853 21.80770874 70.07092285 21.81079102 C65.77640769 21.82113621 61.48194926 21.84905721 57.1875 21.875 C47.555625 21.91625 37.92375 21.9575 28 22 Z M28 104 C28 124.13 28 144.26 28 165 C39.84861191 165.08754708 39.84861191 165.08754708 51.69726562 165.14648438 C56.54412944 165.16427919 61.39082009 165.18511226 66.23754883 165.22631836 C70.15389437 165.25939846 74.07005371 165.27695305 77.9865284 165.28463173 C79.4657388 165.29008951 80.94494136 165.30074068 82.42407036 165.31719017 C96.99420381 165.47248213 114.52929335 165.24402464 126.05078125 155.21484375 C131.83695866 149.18907307 134.06106272 142.89485647 134.4375 134.625 C134.18133497 127.00409026 132.10898859 119.86833589 126.9375 114.125 C115.12293995 103.59792406 99.70777599 103.70472149 84.8359375 103.8046875 C83.19113335 103.80842469 81.54632696 103.81126832 79.90151978 103.81326294 C75.6042042 103.82084383 71.30702707 103.84044368 67.00976562 103.8626709 C61.83672445 103.88687759 56.66363659 103.89593675 51.49055481 103.90757751 C43.66027402 103.92687211 35.83029613 103.96523302 28 104 Z " fill="#FFFFFF" transform="translate(1569,78)"/>
<path d="M0 0 C113.87881944 0 113.87881944 0 135.6875 20.0625 C148.51736526 33.67411332 152.63530467 50.14172447 152.40283203 68.41210938 C151.85321824 85.31661487 146.09617524 99.93987893 134 112 C127.31575675 117.69066834 120.4137196 121.50704604 112 124 C118.86749639 134.14752002 125.8191374 144.21774399 133.02954102 154.125 C137.91052138 160.84252763 142.67545516 167.63826432 147.41967773 174.45288086 C148.25221069 175.64796265 148.25221069 175.64796265 149.1015625 176.8671875 C149.58963379 177.56956543 150.07770508 178.27194336 150.58056641 178.99560547 C151.57661926 180.40214038 152.61437954 181.77961783 153.68115234 183.13330078 C155 185 155 185 155 187 C150.89372318 187.29947601 146.79175202 187.51555839 142.67700195 187.65917969 C141.28232084 187.71908286 139.88837954 187.80066059 138.49633789 187.90527344 C133.81873828 188.24765963 129.5781565 188.23646648 125 187 C121.02901773 183.5427351 118.61985071 179.52709109 116 175 C114.86730126 173.37341646 113.71887452 171.75760523 112.55078125 170.15625 C111.46929517 168.60560066 110.38989677 167.05349338 109.3125 165.5 C108.11462047 163.78122412 106.91670258 162.06247497 105.71875 160.34375 C105.11160156 159.47105469 104.50445313 158.59835938 103.87890625 157.69921875 C100.69693767 153.12803312 97.50483616 148.56394828 94.3125 144 C93.7244458 143.15759766 93.1363916 142.31519531 92.53051758 141.44726562 C91.98032959 140.66029297 91.4301416 139.87332031 90.86328125 139.0625 C90.38157471 138.37285156 89.89986816 137.68320313 89.40356445 136.97265625 C88.94038818 136.32167969 88.47721191 135.67070312 88 135 C87.59099457 134.30867981 87.18198914 133.61735962 86.7605896 132.90509033 C85.13397491 130.7663289 85.13397491 130.7663289 82.47529602 130.51898193 C81.46935898 130.52786438 80.46342194 130.53674683 79.42700195 130.54589844 C78.28604568 130.54620056 77.14508942 130.54650269 75.96955872 130.54681396 C74.12257637 130.57778168 74.12257637 130.57778168 72.23828125 130.609375 C70.97735153 130.61503479 69.71642181 130.62069458 68.4172821 130.62652588 C65.06804732 130.64513944 61.71990283 130.68106434 58.37097168 130.7253418 C54.95249011 130.76629141 51.53389247 130.78475538 48.11523438 130.8046875 C41.40954187 130.8454392 34.70575976 130.92372596 28 131 C28 149.48 28 167.96 28 187 C18.76 187 9.52 187 0 187 C0 125.29 0 63.58 0 0 Z M28 24 C28 51.39 28 78.78 28 107 C40.9009375 107.0928125 40.9009375 107.0928125 54.0625 107.1875 C58.08642944 107.22846802 58.08642944 107.22846802 62.19165039 107.27026367 C81.33263457 107.38521954 100.35270803 107.02732674 115.24609375 93.12890625 C124.31545687 82.12043654 125.11452966 69.60594649 124 56 C121.57501086 44.79227816 115.2749366 36.7601437 105.78515625 30.55078125 C90.17653295 21.90240927 71.75919709 23.640761 54.5625 23.8125 C45.796875 23.874375 37.03125 23.93625 28 24 Z " fill="#FFFFFF" transform="translate(1375,78)"/>
<path d="M0 0 C113.74926962 0 113.74926962 0 135.6796875 20.58984375 C148.32853768 33.72846422 152.38623835 49.5234695 152.37304688 67.24951172 C152.01598706 83.80046552 146.59984974 98.94641464 135 111 C119.7915937 124 119.7915937 124 112 124 C119.06929714 134.33954286 126.22506395 144.61273912 133.46630859 154.83251953 C135.02900613 157.04099275 136.58740428 159.25243993 138.14453125 161.46484375 C139.17968032 162.93490089 140.21483647 164.40495304 141.25 165.875 C141.74653076 166.58076172 142.24306152 167.28652344 142.75463867 168.01367188 C146.31769441 173.06623582 149.95855622 178.05254944 153.671875 182.99609375 C155 185 155 185 155 187 C150.85604359 187.22394591 146.715359 187.38642067 142.56713867 187.49438477 C141.15928779 187.53941404 139.7518525 187.6006671 138.34545898 187.67895508 C126.77921979 188.30626263 126.77921979 188.30626263 122.7434082 185.34326172 C120.89316208 182.99705447 119.45938183 180.60609009 118 178 C116.7611584 176.2185952 115.50661995 174.44802507 114.23828125 172.6875 C112.92732955 170.7932964 111.61880962 168.89740792 110.3125 167 C108.9067177 164.96842628 107.50046331 162.93717917 106.09375 160.90625 C105.40410156 159.90980469 104.71445313 158.91335937 104.00390625 157.88671875 C101.12749572 153.74311761 98.22446634 149.61866438 95.3125 145.5 C94.84432861 144.83742187 94.37615723 144.17484375 93.89379883 143.4921875 C92.59772838 141.66011264 91.30055341 139.82889623 90 138 C89.73060104 137.41987656 89.46120209 136.83975311 89.18363953 136.24205017 C87.98483874 134.00985354 86.97594597 132.60345286 85 131 C80.68301924 130.00342371 76.452823 130.18591997 72.04296875 130.31640625 C70.78486893 130.32631088 69.5267691 130.33621552 68.23054504 130.34642029 C64.8967994 130.37893372 61.56644633 130.44172259 58.23364258 130.51934814 C54.82859037 130.59115855 51.42317614 130.62335357 48.01757812 130.65820312 C41.34314906 130.72940246 34.67463837 130.86637998 28 131 C28 149.48 28 167.96 28 187 C18.76 187 9.52 187 0 187 C0 125.29 0 63.58 0 0 Z M28 24 C28 51.39 28 78.78 28 107 C40.9009375 107.0928125 40.9009375 107.0928125 54.0625 107.1875 C58.08642944 107.22846802 58.08642944 107.22846802 62.19165039 107.27026367 C80.7465663 107.38178515 99.97106244 107.27053841 114.47265625 93.76171875 C123.68197676 83.13920327 124.84058222 71.70510982 124.1953125 58.23779297 C123.30332251 48.01781764 117.59851823 39.89943323 110.0625 33.3125 C98.48660986 24.72393635 84.13821309 23.84080906 70.28515625 23.90234375 C69.21100464 23.90335083 68.13685303 23.90435791 67.03015137 23.90539551 C63.04092329 23.91060356 59.0517105 23.92456474 55.0625 23.9375 C46.131875 23.958125 37.20125 23.97875 28 24 Z " fill="#FFFFFF" transform="translate(2010,78)"/>
<path d="M0 0 C43.89 0 87.78 0 133 0 C133 7.92 133 15.84 133 24 C98.35 24 63.7 24 28 24 C28 42.48 28 60.96 28 80 C58.69 80 89.38 80 121 80 C121 87.92 121 95.84 121 104 C90.31 104 59.62 104 28 104 C28 123.47 28 142.94 28 163 C63.64 163 99.28 163 136 163 C136 170.92 136 178.84 136 187 C91.12 187 46.24 187 0 187 C0 125.29 0 63.58 0 0 Z " fill="#FFFFFF" transform="translate(930,78)"/>
<path d="M0 0 C0.68603302 0.00215515 1.37206604 0.0043103 2.07888794 0.00653076 C28.81134318 0.14137979 50.09732288 7.59926489 70.1171875 25.26953125 C71.8125 27.3125 71.8125 27.3125 71.8125 31.3125 C70.43554688 33.14355469 70.43554688 33.14355469 68.53125 34.984375 C67.85449219 35.64824219 67.17773438 36.31210938 66.48046875 36.99609375 C65.40732422 38.01896484 65.40732422 38.01896484 64.3125 39.0625 C63.23935547 40.10857422 63.23935547 40.10857422 62.14453125 41.17578125 C60.37581656 42.89733021 58.59845695 44.6088744 56.8125 46.3125 C53.51883911 44.72632629 50.83361504 42.86530784 47.9375 40.625 C30.52721796 27.87446055 11.32914712 23.46887433 -9.875 26 C-29.39749799 29.05237754 -46.28865462 37.73218633 -58.4375 53.5625 C-70.220176 70.65333105 -73.88724621 90.30945661 -70.56640625 110.69140625 C-67.11336412 127.87194302 -57.41982872 142.57400378 -43.5 153.125 C-24.03506166 165.68203436 -1.67251813 169.16204281 20.90234375 164.30078125 C29.00064177 162.37375852 36.39398715 159.02175642 43.8125 155.3125 C44.3075 125.1175 44.3075 125.1175 44.8125 94.3125 C53.3925 94.3125 61.9725 94.3125 70.8125 94.3125 C70.97080183 103.85723029 71.09915621 113.40108545 71.1751852 122.94683266 C71.21168018 127.37960294 71.26115916 131.81142678 71.34057617 136.24365234 C71.41677398 140.52311845 71.45851839 144.8016758 71.4766407 149.08176804 C71.48955056 150.71253134 71.51476233 152.34324622 71.5526104 153.97362137 C71.83664465 166.71867794 71.83664465 166.71867794 69.34378052 170.59819031 C67.55709781 172.17239098 65.93059301 173.2396302 63.8125 174.3125 C62.52039801 175.10475921 61.22868142 175.89764762 59.9375 176.69140625 C58.56952056 177.43238135 57.19419741 178.15993069 55.8125 178.875 C55.07338379 179.25994629 54.33426758 179.64489258 53.57275391 180.04150391 C27.02927059 193.49769355 -4.99698347 195.90898331 -33.50390625 187.5625 C-58.78623875 178.98312948 -79.50983354 162.91569045 -91.48510742 138.69506836 C-102.49908364 114.83097876 -103.22651827 86.82012884 -94.9375 62.0625 C-90.67622089 50.97045407 -85.12802211 41.16491953 -77.1875 32.3125 C-76.37539063 31.40628906 -75.56328125 30.50007813 -74.7265625 29.56640625 C-55.21800337 8.94225503 -27.95845096 -0.15774051 0 0 Z " fill="#FFFFFF" transform="translate(542.1875,75.6875)"/>
<path d="M0 0 C9.24 0 18.48 0 28 0 C33.07002186 9.97793718 37.8739882 19.99176626 42.35400391 30.24560547 C48.55127706 44.41756633 54.96276197 58.48204764 61.5 72.5 C67.79344818 86.00054554 73.95522856 99.54837045 79.96017456 113.17959595 C86.25771749 127.46515382 92.80830473 141.62805045 99.44335938 155.75976562 C104.26726407 166.06506085 108.7434251 176.44618149 113 187 C103.1 187 93.2 187 83 187 C80.28895742 180.93327783 77.58133572 174.865264 74.88232422 168.79321289 C73.96276965 166.72721965 73.04122798 164.66210968 72.11767578 162.59790039 C70.79198544 159.63396436 69.47342914 156.66694514 68.15625 153.69921875 C67.74064819 152.7741301 67.32504639 151.84904144 66.89685059 150.8959198 C66.32625916 149.60492119 66.32625916 149.60492119 65.74414062 148.2878418 C65.40660767 147.53061325 65.06907471 146.7733847 64.72131348 145.99320984 C64 144 64 144 64 141 C14.995 141.495 14.995 141.495 -35 142 C-44.9 164.275 -44.9 164.275 -55 187 C-64.57 187 -74.14 187 -84 187 C-82.47100843 182.41302528 -80.78749982 178.13963872 -78.76171875 173.77734375 C-78.44509277 173.08858154 -78.1284668 172.39981934 -77.80224609 171.69018555 C-77.12169082 170.21032927 -76.4397955 168.73108864 -75.75668335 167.25241089 C-73.92472054 163.28599048 -72.10348796 159.31464516 -70.28125 155.34375 C-69.91343918 154.54283432 -69.54562836 153.74191864 -69.16667175 152.91673279 C-65.96619773 145.94166734 -62.81654963 138.94492964 -59.6875 131.9375 C-54.38301849 120.07022957 -49.04455352 108.21863114 -43.6875 96.375 C-43.28242218 95.47938354 -42.87734436 94.58376709 -42.45999146 93.66101074 C-36.55245204 80.60352277 -30.60805557 67.56329237 -24.6383667 54.53411865 C-18.5187807 41.17488994 -12.48985722 27.77651204 -6.50708008 14.35546875 C-4.35452916 9.56287846 -2.17403723 4.7828819 0 0 Z M13 30 C12.68998047 30.72026367 12.37996094 31.44052734 12.06054688 32.18261719 C5.38173018 47.68388824 -1.376495 63.14651808 -8.25 78.5625 C-12.7163995 88.58291175 -17.17303053 98.60580383 -21.5 108.6875 C-21.86770508 109.542229 -22.23541016 110.39695801 -22.61425781 111.27758789 C-24.26312599 114.53346447 -24.26312599 114.53346447 -25 118 C0.74 118 26.48 118 53 118 C51.20709342 112.62128025 49.60541485 107.83616122 47.27734375 102.78125 C46.74729736 101.62109375 46.21725098 100.4609375 45.67114258 99.265625 C45.38945221 98.65396484 45.10776184 98.04230469 44.8175354 97.41210938 C43.2656512 94.04023101 41.73042925 90.66078786 40.1953125 87.28125 C39.86527725 86.55510498 39.535242 85.82895996 39.19520569 85.08081055 C34.81719808 75.42433152 30.56771663 65.71104038 26.3125 56 C25.7227388 54.6550647 25.7227388 54.6550647 25.12106323 53.28295898 C23.99284644 50.70974492 22.86531294 48.13623332 21.73828125 45.5625 C21.40444427 44.80014038 21.0706073 44.03778076 20.72665405 43.25231934 C18.79845118 38.84299343 16.89032516 34.42570055 15 30 C14.34 30 13.68 30 13 30 Z " fill="#FFFFFF" transform="translate(1236,78)"/>
<path d="M0 0 C8.91 0 17.82 0 27 0 C27.01981934 3.27873047 27.03963867 6.55746094 27.06005859 9.93554688 C27.12723976 20.82003558 27.20487383 31.70443214 27.28752708 42.58881378 C27.33727857 49.18207228 27.38360905 55.77531638 27.421875 62.36865234 C27.45899669 68.74243436 27.50542639 75.11608926 27.55806351 81.48976135 C27.57646565 83.91034189 27.59162471 86.33094953 27.60334396 88.75157166 C27.23888867 122.05592173 27.23888867 122.05592173 42 151 C52.37692135 161.02909158 65.22320185 163.91537517 79.3125 164.3125 C93.65429433 164.02051137 107.70451954 160.52946865 118 150 C132.4589144 130.95499821 131.30387976 107.91460077 131.4140625 85.15625 C131.43280831 82.69046404 131.45238416 80.22468426 131.4727478 77.75891113 C131.52371472 71.32130609 131.56352845 64.88368034 131.60089111 58.44598389 C131.64115494 51.85586573 131.69214432 45.26583111 131.7421875 38.67578125 C131.83852632 25.78390749 131.92207019 12.8919982 132 0 C140.91 0 149.82 0 159 0 C159.04542147 13.99680208 159.08201357 27.99355416 159.10362434 41.99041367 C159.11400325 48.49168414 159.12805311 54.992901 159.15087891 61.49414062 C159.17281956 67.78357714 159.18461277 74.07296251 159.18975449 80.36243439 C159.19341254 82.74624688 159.20055409 85.130057 159.21146011 87.51384735 C159.33799612 116.35302018 158.54528552 145.64093826 138.54296875 168.53515625 C122.26755177 184.31056042 100.56833171 189.96731382 78.42041016 190.0390625 C54.74477885 189.65696637 34.75057065 183.12006853 18 166 C4.01699738 150.86162217 -0.17767625 129.91227761 -0.11352539 110.00610352 C-0.11367142 108.81514572 -0.11381744 107.62418793 -0.1139679 106.3971405 C-0.11339278 103.14970726 -0.10839571 99.90231774 -0.10139394 96.65489316 C-0.09512028 93.25430064 -0.09455343 89.85370716 -0.09336853 86.45310974 C-0.09026701 80.02179499 -0.08206958 73.59049735 -0.07201904 67.15919012 C-0.0608212 59.83389747 -0.05533822 52.50860399 -0.05032361 45.18330491 C-0.03988593 30.12219219 -0.02155518 15.06110168 0 0 Z " fill="#FFFFFF" transform="translate(2203,78)"/>
<path d="M0 0 C9.9 0 19.8 0 30 0 C37.15715828 15.87737412 44.24168186 31.77929842 51.1875 47.75 C51.71984253 48.97401016 51.71984253 48.97401016 52.26293945 50.2227478 C52.62154053 51.04731476 52.9801416 51.87188171 53.34960938 52.72143555 C54.08200582 54.40544726 54.81442786 56.08944784 55.546875 57.7734375 C55.91256592 58.61423355 56.27825684 59.4550296 56.6550293 60.32130432 C60.7283247 69.68169381 64.83122266 79.02904251 68.9375 88.375 C69.30408722 89.20945648 69.67067444 90.04391296 70.04837036 90.90365601 C71.91687895 95.15676682 73.78574637 99.40971982 75.65478516 103.66259766 C79.40702956 112.20127888 83.1554319 120.74164738 86.90432739 129.28179932 C88.83452727 133.67880804 90.76492428 138.07573021 92.6953125 142.47265625 C93.34130958 143.94409136 93.98730579 145.41552686 94.63330078 146.88696289 C95.08431152 147.91426514 95.53532227 148.94156738 96 150 C100.82777426 140.71955913 105.05820062 131.22256167 109.22900391 121.63427734 C111.21642981 117.06582284 113.21442229 112.50198772 115.2109375 107.9375 C115.61552185 107.01179199 116.0201062 106.08608398 116.43695068 105.13232422 C120.25381431 96.40477597 124.12129614 87.70019837 128 79 C134.59839043 64.19302499 141.12659504 49.35588059 147.62304688 34.50390625 C152.67316762 22.9678645 157.81780722 11.47740824 163 0 C172.24 0 181.48 0 191 0 C188.94004067 6.17987799 186.80232104 12.00822084 184.1484375 17.9140625 C183.77739395 18.74921387 183.4063504 19.58436523 183.02406311 20.44482422 C182.22678894 22.23835822 181.42769078 24.03108234 180.62692261 25.82305908 C178.47062754 30.64908533 176.32822256 35.48128111 174.18359375 40.3125 C173.74618362 41.29683014 173.3087735 42.28116028 172.85810852 43.2953186 C168.67304856 52.71911781 164.54824433 62.16860087 160.4375 71.625 C159.03949274 74.83872899 157.64098898 78.05224163 156.2421875 81.265625 C155.8953038 82.06252747 155.5484201 82.85942993 155.19102478 83.68048096 C151.16692834 92.92020996 147.11579342 102.14805035 143.0625 111.375 C142.69337494 112.21537811 142.32424988 113.05575623 141.94393921 113.92160034 C138.89233214 120.86877312 135.83934866 127.81534076 132.78607178 134.76177979 C130.33192184 140.34519852 127.87826761 145.92883457 125.42526245 151.51275635 C124.28800209 154.10101222 123.15000351 156.6889426 122.01196289 159.27685547 C117.95961252 168.49778488 113.95185188 177.73551707 110 187 C100.43 187 90.86 187 81 187 C79.246875 182.936875 77.49375 178.87375 75.6875 174.6875 C69.32317962 159.97590583 62.85108221 145.3128244 56.36401367 130.6550293 C50.51552761 117.43882988 44.69540455 104.21046559 38.89266968 90.97412109 C33.8125722 79.38739907 28.70813612 67.81174229 23.58520508 56.24389648 C11.34992973 28.6147147 11.34992973 28.6147147 5.59881592 15.26260376 C4.83435802 13.48823427 4.06688123 11.71516637 3.29931641 9.94213867 C2.8563623 8.90806885 2.4134082 7.87399902 1.95703125 6.80859375 C1.57522705 5.91970459 1.19342285 5.03081543 0.80004883 4.11499023 C0 2 0 2 0 0 Z " fill="#FFFFFF" transform="translate(716,78)"/>
<path d="M0 0 C51.15 0 102.3 0 155 0 C155 7.92 155 15.84 155 24 C133.88 24 112.76 24 91 24 C91 77.79 91 131.58 91 187 C82.09 187 73.18 187 64 187 C64 133.21 64 79.42 64 24 C42.88 24 21.76 24 0 24 C0 16.08 0 8.16 0 0 Z " fill="#FFFFFF" transform="translate(1827,78)"/>
<path d="M0 0 C9.24 0 18.48 0 28 0 C28 61.71 28 123.42 28 187 C18.76 187 9.52 187 0 187 C0 125.29 0 63.58 0 0 Z " fill="#FFFFFF" transform="translate(1771,78)"/>
<path d="M0 0 C9.24 0 18.48 0 28 0 C28 61.71 28 123.42 28 187 C18.76 187 9.52 187 0 187 C0 125.29 0 63.58 0 0 Z " fill="#FFFFFF" transform="translate(663,78)"/>
</svg>
