<svg width="292" height="47" viewBox="0 0 292 47" fill="none" xmlns="http://www.w3.org/2000/svg">
<path d="M71.5755 23.9585H74.6153V30.8695C73.6627 31.5797 72.5368 32.1599 71.2378 32.6103C69.9387 33.0433 68.6656 33.2598 67.4185 33.2598C65.6345 33.2598 64.0063 32.8441 62.534 32.0127C61.0791 31.1813 59.9272 30.0555 59.0785 28.6351C58.2298 27.1975 57.8054 25.6127 57.8054 23.8806C57.8054 22.1485 58.2384 20.5809 59.1045 19.1779C59.9705 17.7576 61.1483 16.6404 62.6379 15.8264C64.1449 14.995 65.8077 14.5793 67.6264 14.5793C68.9254 14.5793 70.2072 14.8131 71.4716 15.2808C72.736 15.7484 73.8272 16.3893 74.7452 17.2034L72.7706 19.7755C72.0778 19.1173 71.2724 18.6064 70.3544 18.2426C69.4537 17.8789 68.5444 17.697 67.6264 17.697C66.4832 17.697 65.4266 17.9741 64.4566 18.5284C63.504 19.0654 62.7505 19.8102 62.1963 20.7628C61.642 21.7155 61.3649 22.7547 61.3649 23.8806C61.3649 25.0237 61.642 26.0717 62.1963 27.0243C62.7678 27.9769 63.53 28.7304 64.4826 29.2847C65.4353 29.8389 66.4918 30.1161 67.6523 30.1161C68.2759 30.1161 68.9254 30.0208 69.6009 29.8303C70.2938 29.6224 70.952 29.3366 71.5755 28.9729V23.9585Z" fill="white"/>
<path d="M78.6442 14.8131H82.1257V33H78.6442V14.8131Z" fill="white"/>
<path d="M89.4034 14.8131H93.1447L98.4968 29.1288L103.901 14.8131H107.486L100.212 33H96.6002L89.4034 14.8131Z" fill="white"/>
<path d="M114.803 14.8131H118.285V33H114.803V14.8131Z" fill="white"/>
<path d="M135.424 14.8131H138.801V33H135.502L126.148 20.477V33H122.745V14.8131H126.044L135.424 27.3621V14.8131Z" fill="white"/>
<path d="M155.612 23.9585H158.652V30.8695C157.699 31.5797 156.573 32.1599 155.274 32.6103C153.975 33.0433 152.702 33.2598 151.455 33.2598C149.671 33.2598 148.043 32.8441 146.571 32.0127C145.116 31.1813 143.964 30.0555 143.115 28.6351C142.266 27.1975 141.842 25.6127 141.842 23.8806C141.842 22.1485 142.275 20.5809 143.141 19.1779C144.007 17.7576 145.185 16.6404 146.674 15.8264C148.181 14.995 149.844 14.5793 151.663 14.5793C152.962 14.5793 154.244 14.8131 155.508 15.2808C156.773 15.7484 157.864 16.3893 158.782 17.2034L156.807 19.7755C156.114 19.1173 155.309 18.6064 154.391 18.2426C153.49 17.8789 152.581 17.697 151.663 17.697C150.52 17.697 149.463 17.9741 148.493 18.5284C147.541 19.0654 146.787 19.8102 146.233 20.7628C145.679 21.7155 145.401 22.7547 145.401 23.8806C145.401 25.0237 145.679 26.0717 146.233 27.0243C146.804 27.9769 147.567 28.7304 148.519 29.2847C149.472 29.8389 150.528 30.1161 151.689 30.1161C152.312 30.1161 152.962 30.0208 153.637 29.8303C154.33 29.6224 154.989 29.3366 155.612 28.9729V23.9585Z" fill="white"/>
<path d="M172.193 25.5174C172.193 26.955 172.6 28.0809 173.414 28.895C174.228 29.709 175.319 30.1161 176.688 30.1161C178.056 30.1161 179.13 29.709 179.909 28.895C180.706 28.0809 181.105 26.955 181.105 25.5174V14.8131H184.586V25.5174C184.586 27.0936 184.266 28.4706 183.625 29.6484C182.984 30.8089 182.066 31.7009 180.871 32.3245C179.693 32.948 178.299 33.2598 176.688 33.2598C175.06 33.2598 173.639 32.948 172.427 32.3245C171.232 31.7009 170.314 30.8089 169.673 29.6484C169.032 28.4706 168.712 27.0936 168.712 25.5174V14.8131H172.193V25.5174Z" fill="white"/>
<path d="M201.366 14.8131H204.744V33H201.444L192.091 20.477V33H188.687V14.8131H191.987L201.366 27.3621V14.8131Z" fill="white"/>
<path d="M209.214 14.8131H212.695V33H209.214V14.8131Z" fill="white"/>
<path d="M214.973 14.8131H218.714L224.066 29.1288L229.47 14.8131H233.056L225.781 33H222.17L214.973 14.8131Z" fill="white"/>
<g clip-path="url(#clip0_97_7907)">
<path fill-rule="evenodd" clip-rule="evenodd" d="M25.9266 25.9266C25.1685 26.0758 24.3849 26.154 23.5831 26.154C22.7813 26.154 21.9978 26.0758 21.2397 25.9266C21.0905 25.1685 21.0123 24.3849 21.0123 23.5831C21.0123 22.7813 21.0905 21.9978 21.2397 21.2397C21.9978 21.0905 22.7813 21.0123 23.5831 21.0123C24.3849 21.0123 25.1685 21.0905 25.9266 21.2397C26.0758 21.9978 26.154 22.7813 26.154 23.5831C26.154 24.3849 26.0758 25.1685 25.9266 25.9266ZM25.4145 27.7521C24.8154 27.8317 24.204 27.8727 23.5831 27.8727C22.9622 27.8727 22.3509 27.8317 21.7517 27.7521C22.1906 28.9446 22.8125 30.0486 23.5831 31.0302C24.3538 30.0486 24.9756 28.9446 25.4145 27.7521ZM19.4141 25.4145C19.3346 24.8154 19.2936 24.204 19.2936 23.5831C19.2936 22.9622 19.3346 22.3509 19.4141 21.7517C18.2217 22.1906 17.1176 22.8125 16.1361 23.5831C17.1176 24.3538 18.2217 24.9756 19.4141 25.4145ZM14.8479 24.7531C16.2889 25.9344 17.9734 26.8294 19.8148 27.3514C20.3368 29.1928 21.2319 30.8774 22.4131 32.3184C20.2472 34.384 17.3141 35.6523 14.0848 35.6523C13.283 35.6523 12.4994 35.5741 11.7413 35.4249C11.5922 34.6668 11.514 33.8833 11.514 33.0815C11.514 29.8521 12.7823 26.9191 14.8479 24.7531ZM14.8479 22.4131C16.2888 21.2319 17.9734 20.3368 19.8148 19.8148C20.3368 17.9734 21.2319 16.2889 22.4131 14.8479C20.2472 12.7823 17.3141 11.514 14.0848 11.514C13.283 11.514 12.4994 11.5922 11.7413 11.7413C11.5922 12.4994 11.514 13.283 11.514 14.0848C11.514 17.3141 12.7823 20.2472 14.8479 22.4131ZM9.91578 12.2534C9.83626 12.8526 9.79521 13.4639 9.79521 14.0848C9.79521 17.766 11.2379 21.1103 13.5887 23.5831C11.2379 26.0559 9.79521 29.4002 9.79521 33.0815C9.79521 33.7024 9.83626 34.3137 9.91578 34.9129C5.30454 33.2155 2.01562 28.7834 2.01562 23.5831C2.01563 18.3828 5.30454 13.9507 9.91578 12.2534ZM10.3165 10.3165C11.9559 4.53338 17.2748 0.296875 23.5831 0.296875C29.8915 0.296875 35.2103 4.53338 36.8498 10.3165C42.6329 11.9559 46.8694 17.2748 46.8694 23.5831C46.8694 29.8915 42.6329 35.2103 36.8498 36.8498C35.2103 42.6329 29.8915 46.8694 23.5831 46.8694C17.2748 46.8694 11.9559 42.6329 10.3165 36.8498C4.53338 35.2103 0.296875 29.8915 0.296875 23.5831C0.296875 17.2748 4.53338 11.9559 10.3165 10.3165ZM12.2534 9.91578C13.9507 5.30454 18.3828 2.01563 23.5831 2.01563C28.7834 2.01563 33.2155 5.30454 34.9129 9.91578C34.3137 9.83626 33.7024 9.79521 33.0815 9.79521C29.4002 9.79521 26.0559 11.2379 23.5831 13.5887C21.1103 11.2379 17.766 9.79521 14.0848 9.79521C13.4639 9.79521 12.8526 9.83626 12.2534 9.91578ZM35.4249 11.7413C34.6669 11.5922 33.8833 11.514 33.0815 11.514C29.8522 11.514 26.9191 12.7823 24.7531 14.8479C25.9344 16.2889 26.8294 17.9734 27.3514 19.8148C29.1928 20.3368 30.8774 21.2319 32.3184 22.4131C34.384 20.2472 35.6523 17.3141 35.6523 14.0848C35.6523 13.283 35.5741 12.4994 35.4249 11.7413ZM37.2505 12.2534C37.33 12.8526 37.371 13.4639 37.371 14.0848C37.371 17.766 35.9284 21.1103 33.5776 23.5831C35.9284 26.0559 37.371 29.4002 37.371 33.0815C37.371 33.7024 37.33 34.3137 37.2505 34.9129C41.8617 33.2155 45.1506 28.7834 45.1506 23.5831C45.1506 18.3828 41.8617 13.9507 37.2505 12.2534ZM32.3184 24.7531C34.384 26.9191 35.6523 29.8521 35.6523 33.0815C35.6523 33.8833 35.5741 34.6668 35.4249 35.4249C34.6668 35.5741 33.8833 35.6523 33.0815 35.6523C29.8522 35.6523 26.9191 34.384 24.7531 32.3184C25.9344 30.8774 26.8294 29.1928 27.3514 27.3514C29.1928 26.8294 30.8774 25.9344 32.3184 24.7531ZM31.0302 23.5831C30.0486 24.3538 28.9446 24.9756 27.7521 25.4145C27.8317 24.8154 27.8727 24.204 27.8727 23.5831C27.8727 22.9622 27.8317 22.3509 27.7521 21.7517C28.9446 22.1906 30.0486 22.8125 31.0302 23.5831ZM14.0848 37.371C17.766 37.371 21.1103 35.9284 23.5831 33.5776C26.0559 35.9284 29.4002 37.371 33.0815 37.371C33.7024 37.371 34.3137 37.33 34.9129 37.2505C33.2155 41.8617 28.7834 45.1506 23.5831 45.1506C18.3828 45.1506 13.9507 41.8617 12.2534 37.2505C12.8526 37.33 13.4639 37.371 14.0848 37.371ZM21.7517 19.4141C22.1906 18.2217 22.8125 17.1176 23.5831 16.1361C24.3538 17.1176 24.9756 18.2217 25.4145 19.4141C24.8154 19.3346 24.204 19.2936 23.5831 19.2936C22.9622 19.2936 22.3509 19.3346 21.7517 19.4141Z" fill="white"/>
</g>
<defs>
<clipPath id="clip0_97_7907">
<rect width="47" height="47" fill="white"/>
</clipPath>
</defs>
</svg>
