<?xml version="1.0" encoding="UTF-8"?><svg id="Capa_2" xmlns="http://www.w3.org/2000/svg" viewBox="0 0 993.76 166.82"><defs><style>.cls-1{fill:#fff;stroke-width:0px;}</style></defs><g id="Capa_1-2"><path class="cls-1" d="M130.13,35.16C123.93,14.83,105,0,82.66,0s-41.52,15.03-47.58,35.58C14.8,41.8,0,60.71,0,83.01s14.68,41.06,34.83,47.37c5.79,20.98,25.04,36.44,47.83,36.44s41.8-15.26,47.72-36.02c20.9-5.83,36.28-25.05,36.28-47.79s-15.5-42.1-36.53-47.85ZM125.96,49.6c0,11.38-4.4,21.74-11.6,29.48-4.93-4.1-10.66-7.27-16.92-9.23-1.91-6.92-5.28-13.25-9.77-18.61,7.73-7.15,18.05-11.53,29.38-11.53,2.71,0,5.36.25,7.93.73.64,2.95.98,6.02.98,9.16ZM98.85,77.05c3.93,1.59,7.58,3.74,10.84,6.36-3.29,2.64-6.98,4.81-10.95,6.39.31-2.22.47-4.49.47-6.79,0-2.02-.12-4.01-.36-5.96ZM82.66,92.9c-2.7,0-5.35-.25-7.92-.73-.64-2.95-.98-6.02-.98-9.16,0-2.85.28-5.64.81-8.34,2.62-.5,5.33-.76,8.09-.76,3.26,0,6.43.36,9.49,1.05.49,2.61.75,5.3.75,8.05,0,3.04-.31,6.01-.91,8.88-3.01.66-6.13,1.01-9.33,1.01ZM89.97,98.67c-1.62,4.17-3.87,8.03-6.64,11.46-2.73-3.38-4.95-7.17-6.57-11.27,1.94.23,3.9.35,5.9.35,2.48,0,4.92-.18,7.31-.54ZM76.44,68c1.64-4.42,3.98-8.5,6.89-12.11,2.95,3.66,5.32,7.81,6.96,12.3-2.49-.38-5.04-.58-7.63-.58-2.11,0-4.18.13-6.22.39ZM82.66,6.31c18.29,0,33.96,11.39,40.3,27.45-1.94-.23-3.91-.35-5.91-.35-13.01,0-24.87,5.03-33.72,13.25-8.85-8.22-20.71-13.25-33.72-13.25-2.48,0-4.92.18-7.31.54,6.28-16.16,22.01-27.64,40.36-27.64ZM40.29,40.72c3-.66,6.12-1.01,9.32-1.01,11.33,0,21.65,4.38,29.38,11.53-4.4,5.26-7.73,11.43-9.66,18.19-6.82,1.91-13.06,5.24-18.36,9.65-7.19-7.74-11.6-18.1-11.6-29.48,0-3.04.32-6.01.92-8.88ZM67.99,90.34c-4.51-1.62-8.67-3.98-12.35-6.93,3.65-2.93,7.77-5.27,12.24-6.9-.29,2.13-.43,4.3-.43,6.5,0,2.49.18,4.94.54,7.33ZM33.42,123.17c-15.88-6.42-27.11-22-27.11-40.16s11.28-33.8,27.22-40.2c-.31,2.22-.47,4.49-.47,6.79,0,13.05,5.06,24.95,13.33,33.81-8.27,8.86-13.33,20.75-13.33,33.8,0,2.02.12,4.01.36,5.96ZM39.37,117.21c0-11.38,4.41-21.73,11.6-29.47,5.37,4.47,11.7,7.83,18.62,9.72,1.96,6.42,5.19,12.29,9.4,17.32-7.73,7.15-18.05,11.53-29.38,11.53-3.26,0-6.43-.36-9.49-1.05-.49-2.61-.75-5.3-.75-8.05ZM82.66,160.51c-18.66,0-34.61-11.87-40.68-28.47,2.49.38,5.04.58,7.63.58,13.01,0,24.87-5.03,33.72-13.26,8.85,8.23,20.71,13.26,33.72,13.26,2.11,0,4.18-.13,6.22-.39-6.12,16.5-22.01,28.28-40.61,28.28ZM125.15,125.55c-2.63.5-5.33.76-8.1.76-11.33,0-21.65-4.38-29.38-11.53,4.3-5.14,7.58-11.16,9.52-17.74,6.36-1.95,12.18-5.15,17.17-9.3,7.2,7.74,11.6,18.09,11.6,29.47,0,2.85-.28,5.64-.81,8.34ZM131.84,123.71c.29-2.13.43-4.3.43-6.5,0-13.05-5.06-24.94-13.33-33.8,8.27-8.86,13.33-20.76,13.33-33.81,0-2.49-.18-4.94-.54-7.33,16.67,6.03,28.62,22.02,28.62,40.74s-11.9,34.64-28.51,40.7Z"/><path class="cls-1" d="M295.12,82.9h12.28v34.92c-8.96,7.55-21.36,11.39-33.9,11.39-27.5,0-47.72-19.32-47.72-45.8s20.21-45.8,47.97-45.8c14.2,0,26.23,4.73,34.41,13.82l-7.93,7.93c-7.42-7.16-15.86-10.36-25.97-10.36-20.72,0-35.69,14.46-35.69,34.41s14.97,34.41,35.56,34.41c7.55,0,14.58-1.66,20.98-5.76v-29.17Z"/><path class="cls-1" d="M331.83,38.63h12.79v89.55h-12.79V38.63Z"/><path class="cls-1" d="M448.38,38.63l-39.27,89.55h-12.67l-39.4-89.55h13.82l32.24,73.56,32.49-73.56h12.79Z"/><path class="cls-1" d="M524.76,117.06v11.13h-64.99V38.63h63.2v11.13h-50.4v27.5h44.9v10.87h-44.9v28.91h52.2Z"/><path class="cls-1" d="M571.71,117.95l4.73-9.98c6.65,6.01,18.04,10.36,29.55,10.36,15.48,0,22.13-6.01,22.13-13.82,0-21.88-54.24-8.06-54.24-41.32,0-13.82,10.75-25.59,34.29-25.59,10.49,0,21.36,2.81,28.78,7.93l-4.22,10.23c-7.8-4.99-16.63-7.29-24.56-7.29-15.22,0-21.75,6.4-21.75,14.2,0,21.88,54.24,8.19,54.24,41.07,0,13.69-11,25.46-34.67,25.46-13.69,0-27.12-4.61-34.29-11.26Z"/><path class="cls-1" d="M675.85,49.76h-30.7v-11.13h74.07v11.13h-30.7v78.42h-12.67V49.76Z"/><path class="cls-1" d="M785.74,105.8h-47.59l-9.85,22.39h-13.18l40.55-89.55h12.67l40.68,89.55h-13.43l-9.85-22.39ZM781.26,95.56l-19.32-43.88-19.32,43.88h38.63Z"/><path class="cls-1" d="M882.2,128.19l-19.32-27.5c-1.79.13-3.71.26-5.63.26h-22.13v27.25h-12.79V38.63h34.92c23.28,0,37.36,11.77,37.36,31.21,0,13.82-7.16,23.79-19.7,28.27l21.24,30.06h-13.94ZM881.82,69.85c0-12.79-8.57-20.08-24.95-20.08h-21.75v40.3h21.75c16.38,0,24.95-7.42,24.95-20.21Z"/><path class="cls-1" d="M944.5,88.4l-16.38,16.63v23.16h-12.79V38.63h12.79v50.02l48.61-50.02h14.58l-38.25,40.3,40.68,49.25h-14.97l-34.29-39.79Z"/></g></svg>