<svg width="26" height="30" viewBox="0 0 26 30" fill="none" xmlns="http://www.w3.org/2000/svg">
<path d="M11.4819 0.411936C12.4212 -0.130371 13.5785 -0.130372 14.5178 0.411936L24.4819 6.16472C25.4212 6.70703 25.9999 7.70926 25.9999 8.79387V20.2994C25.9999 21.3841 25.4212 22.3863 24.4819 22.9286L14.5178 28.6814C13.5785 29.2237 12.4212 29.2237 11.4819 28.6814L1.51782 22.9286C0.578512 22.3863 -0.000123978 21.3841 -0.000123978 20.2994V8.79387C-0.000123978 7.70926 0.578512 6.70703 1.51782 6.16472L11.4819 0.411936Z" fill="#81C362"/>
<path d="M9.4751 11V19H7.6626L4.77197 14.7969H4.7251V19H2.55322V11H4.39697L7.24072 15.1875H7.30322V11H9.4751ZM10.5024 19V11H16.1274V12.75H12.6743V14.125H15.7837V15.875H12.6743V19H10.5024ZM16.7075 12.75V11H23.6606V12.75H21.2544V19H19.1138V12.75H16.7075Z" fill="white"/>
</svg>
